<svg width="61" height="31" fill="none" xmlns="http://www.w3.org/2000/svg"><g clip-path="url(#clip0)" fill="#2B2A29"><path d="M44.158 9.9c-1.103 2.95-2.938 5.65-5.426 7.917-4.268 3.888-9.942 6.03-15.975 6.03-6.032 0-11.705-2.142-15.974-6.03C4.295 15.55 2.459 12.849 1.357 9.9H-.001C3.65 22.105 14.964 31 28.356 31s24.706-8.896 28.357-21.1H44.157z"/><path d="M17.14 17.62c-5.806 0-10.89-3.093-13.693-7.72H2.11c1.073 2.75 2.814 5.27 5.148 7.396 4.138 3.77 9.644 5.847 15.501 5.847 5.858 0 11.363-2.076 15.502-5.847 2.334-2.125 4.074-4.647 5.147-7.396H30.833c-2.804 4.627-7.887 7.72-13.692 7.72h-.001zM0 8.117h7.569l.06-2.18H3.396v-.83h4.07V2.914h-4.07V2.19h4.275V0H0v8.117zm25.252-6.528V0h-7.075v1.577h4.556l-4.788 5.066v1.474h7.692v-1.58h-5.076l4.691-4.948zM32.222 0c-.794 1.245-1.835 2.809-2.263 3.594-.428-.785-1.47-2.35-2.264-3.594h-2.023l3.356 4.935a.569.569 0 01.056.108c.008.022.01.048.014.075.002.02.005.037.005.064v2.934h1.71V5.182c0-.027.004-.043.006-.064.003-.026.005-.052.013-.075a.483.483 0 01.057-.108L34.246 0h-2.023zm12.96 0c-.313 1.085-.794 2.698-1.193 4.125-.318 1.082-.588 2.06-.706 2.627-.267-1.314-1.394-4.85-1.997-6.753h-1.32c-.602 1.903-1.729 5.438-1.997 6.753-.117-.568-.388-1.544-.705-2.625-.398-1.427-.88-3.042-1.193-4.128h-1.408l2.457 8.117h1.626c.516-1.675 1.542-5.029 1.881-6.365.34 1.336 1.366 4.69 1.881 6.365h1.625L46.59-.001h-1.408V0zm13.861 0c-.956 1.372-2.403 3.349-2.834 4.07-.432-.721-1.878-2.698-2.835-4.07h-1.093l3.401 4.8c.036.06.055.095.055.188v3.128h.943V4.988a.3.3 0 01.055-.188L60.136 0h-1.093zM48.195 4.69l.16-.384 1.376-3.083L51.28 4.69h-3.084zM50.469 0h-1.474L45.37 8.117h1.284l1.082-2.424h3.988l.84 1.882.24.543h1.286L50.48.023h-.002L50.468 0zM11.748 4.73c.352-1.033.657-2.009.848-2.695l.11-.348h.015l.11.348c.192.686.496 1.662.848 2.694h-1.931zM14.37 0h-3.313l-.002.005-3.021 8.112h2.646l.497-1.498h3.072l.497 1.498h2.646L14.372.005 14.368 0h.001z"/></g><defs><clipPath id="clip0"><path fill="#fff" d="M0 0h60.136v31H0z"/></clipPath></defs></svg>