<svg width="412" height="412" viewBox="0 0 412 412" fill="none" xmlns="http://www.w3.org/2000/svg">
<path d="M98.1703 164.285C98.1864 164.334 98.1864 164.382 98.2025 164.43C98.2186 164.478 98.2669 164.494 98.283 164.527C104.801 180.331 117.499 194.477 134.381 203.635C144.021 208.865 152.31 211.054 159.906 211.054C172.829 211.054 183.789 204.713 196.101 196.328L216.266 207.288C216.572 207.449 216.91 207.546 217.248 207.546C217.972 207.546 218.68 207.159 219.05 206.467C219.598 205.47 219.227 204.214 218.23 203.667L198.064 192.707C198.628 169.033 196.632 151.087 170.608 136.943C145.035 123.054 115.083 123.327 94.3058 137.619C94 137.828 93.8069 138.102 93.662 138.423C93.6299 138.488 93.6138 138.552 93.5816 138.617C93.5172 138.778 93.4689 138.938 93.4528 139.115C93.4528 139.164 93.4206 139.212 93.4206 139.26C93.1792 147.742 94.8852 156.223 98.1681 164.286L98.1703 164.285ZM116.839 132.371L120.637 150.622L99.5542 139.163C104.849 136.025 110.675 133.74 116.839 132.372L116.839 132.371ZM167.519 140.45L175.871 180.636L153.002 168.212L145.519 132.21C152.97 133.659 160.405 136.266 167.519 140C167.519 140.144 167.486 140.305 167.519 140.45L167.519 140.45ZM135.653 199.144C135.508 199.208 135.396 199.305 135.267 199.385C128.266 195.442 122.022 190.63 116.759 185.158L151.039 171.833L173.908 184.257L135.653 199.144ZM113.798 181.891C109.259 176.629 105.574 170.867 102.87 164.816L123.422 156.833L146.308 169.258L113.798 181.891ZM97.5754 142.799L118.674 154.258L101.277 161.017C99.072 155.095 97.8167 148.963 97.5753 142.799L97.5754 142.799ZM140.016 201.864L178.641 186.848L192.014 194.123C174.939 205.598 161.179 211.922 140.016 201.864H140.016ZM193.996 190.486L180.622 183.211L172.189 142.623C192.161 154.902 194.35 169.902 193.996 190.485V190.486ZM141.161 131.504L148.258 165.639L125.373 153.214L120.883 131.633C127.45 130.619 134.273 130.57 141.161 131.504L141.161 131.504Z" fill="#BEBFC4"/>
<path d="M295.144 184.658H295.16C295.192 184.674 295.208 184.691 295.24 184.707C295.562 184.9 295.916 184.98 296.27 184.98C296.544 184.98 296.834 184.916 297.107 184.803C302.45 182.437 307.23 178.881 311.27 174.455C311.302 174.423 311.334 174.423 311.35 174.391C311.382 174.358 311.398 174.31 311.431 174.278C319.317 165.571 324.354 153.533 325.062 140.384C326.172 120.106 316.532 112.413 302.643 104.254L303.464 89.0937C303.529 87.951 302.66 86.9854 301.517 86.921C300.278 86.8406 299.409 87.7257 299.344 88.8684L298.523 104.029C283.83 110.611 273.401 117.209 272.291 137.504C271.18 157.428 280.144 175.919 295.144 184.657L295.144 184.658ZM286.791 171.912L295.128 165.603L294.387 179.138C291.571 177.111 289.028 174.681 286.791 171.912L286.791 171.912ZM278.921 157.428L296.303 144.279L295.434 160.196L284.297 168.629C282.076 165.233 280.257 161.467 278.922 157.428H278.921ZM276.395 138.936L297.461 122.987L296.592 138.888L277.795 153.114C276.749 148.592 276.234 143.828 276.395 138.936H276.395ZM317.838 155.303L300.714 139.113L301.583 123.196L320.799 141.35C320.429 146.242 319.399 150.925 317.838 155.303L317.838 155.303ZM309.694 170.013L299.539 160.421L300.408 144.504L316.245 159.472C314.49 163.334 312.285 166.891 309.695 170.013H309.694ZM298.509 179.363L299.249 165.812L306.862 173.006C304.335 175.517 301.535 177.641 298.509 179.363H298.509ZM320.96 135.848L301.873 117.807L302.355 108.891C313.267 115.473 320.477 121.814 320.96 135.848H320.96ZM298.252 108.681L297.769 117.598L276.831 133.45C278.859 119.513 286.712 114.009 298.252 108.682L298.252 108.681Z" fill="#BEBFC4"/>
<path d="M220.63 289.348C220.613 289.251 220.613 289.123 220.581 289.042C220.565 289.01 220.581 288.994 220.565 288.962C220.549 288.93 220.533 288.913 220.533 288.897C220.485 288.817 220.436 288.736 220.388 288.64C220.324 288.543 220.275 288.431 220.195 288.35C220.147 288.302 220.115 288.27 220.082 288.221C220.066 288.205 220.066 288.173 220.05 288.173C211.81 280.48 201.864 274.703 190.937 270.872C190.872 270.84 190.824 270.792 190.76 270.776C190.679 270.744 190.583 270.744 190.486 270.728C168.984 263.308 143.703 263.518 119.688 272.24C86.4704 284.327 67.2527 308.564 62.4899 344.258L33.1028 354.928C32.0406 355.314 31.4773 356.505 31.8636 357.567C32.1694 358.404 32.9579 358.919 33.7948 358.919C34.0362 358.919 34.2616 358.871 34.503 358.79L63.874 348.104C81.6576 364.359 101.099 372.567 121.974 372.567C132.306 372.567 142.977 370.571 153.969 366.58C190.389 353.335 216.555 323.237 220.647 289.911C220.647 289.878 220.631 289.862 220.647 289.83V289.669C220.679 289.573 220.647 289.46 220.631 289.347L220.63 289.348ZM206.87 318.252L183.228 304.734L216.027 292.808C214.514 301.66 211.408 310.254 206.869 318.253L206.87 318.252ZM214.611 288.945L181.812 300.871L191.243 275.33C199.885 278.549 207.771 283.135 214.611 288.945H214.611ZM187.348 273.994L176.742 302.706L142.189 315.275L159.071 269.535C168.905 269.631 178.448 271.144 187.348 273.993L187.348 273.994ZM153.084 361.627L103.966 333.543L138.519 320.974L182.537 346.145C174.088 352.759 164.383 358.247 153.745 362.238C153.584 362.013 153.375 361.788 153.085 361.627L153.084 361.627ZM122.168 276.619C122.281 276.329 122.297 276.023 122.265 275.718C132.999 271.952 143.959 269.924 154.661 269.57L137.103 317.11L102.55 329.68L122.168 276.619ZM117.437 277.552L97.5128 331.516L66.9025 342.653C71.7146 310.691 88.3071 289.336 117.438 277.553L117.437 277.552ZM68.2851 346.529L98.9116 335.409L148.867 363.975C118.98 373.648 92.5379 367.95 68.2835 346.529H68.2851ZM185.932 343.359C185.932 343.343 185.932 343.343 185.916 343.343L143.591 319.138L178.16 306.568L204.731 321.777C199.742 329.679 193.401 336.97 185.933 343.359L185.932 343.359Z" fill="#BEBFC4"/>
<path d="M203.552 140.982C203.874 140.982 204.196 140.902 204.502 140.741C228.659 128.123 250.708 111.869 270.001 92.4749C270.806 91.6702 270.806 90.3666 269.985 89.562C269.181 88.7573 267.877 88.7573 267.072 89.5781C248.082 108.681 226.371 124.662 202.586 137.086C201.572 137.617 201.186 138.856 201.717 139.87C202.087 140.578 202.811 140.98 203.552 140.98L203.552 140.982Z" fill="#BEBFC4"/>
<path d="M277.181 83.9776C277.744 83.9776 278.307 83.7523 278.71 83.3017C281.059 80.7106 283.361 78.0553 285.598 75.3674C286.322 74.4983 286.209 73.1948 285.34 72.4706C284.471 71.7463 283.168 71.859 282.443 72.7281C280.239 75.3835 277.97 77.9745 275.652 80.5495C274.896 81.3863 274.96 82.6899 275.797 83.4624C276.183 83.8004 276.682 83.9774 277.181 83.9774L277.181 83.9776Z" fill="#BEBFC4"/>
<path d="M291.876 66.2087C292.504 66.2087 293.115 65.9351 293.518 65.3879C295.256 63.0865 296.962 60.7529 298.619 58.4033C299.279 57.4699 299.054 56.1984 298.137 55.5386C297.219 54.8949 295.932 55.1041 295.272 56.0375C293.63 58.355 291.957 60.6564 290.234 62.9097C289.542 63.8109 289.736 65.1145 290.637 65.7904C291.007 66.0801 291.441 66.2089 291.876 66.2089L291.876 66.2087Z" fill="#BEBFC4"/>
<path d="M301.485 50.614C301.839 50.8393 302.225 50.952 302.611 50.952C303.287 50.952 303.947 50.6301 304.334 50.0185C305.653 47.9907 306.957 45.9468 308.212 43.8707C308.808 42.905 308.502 41.6336 307.536 41.0382C306.571 40.4427 305.299 40.7485 304.704 41.7141C303.448 43.758 302.177 45.7698 300.873 47.7656C300.262 48.7312 300.519 50.0026 301.485 50.6142L301.485 50.614Z" fill="#BEBFC4"/>
<path d="M376.398 88.7243C375.239 88.4668 374.193 89.191 373.952 90.3014C357.907 165.042 311.653 231.799 247.052 273.464C246.102 274.076 245.813 275.363 246.44 276.313C246.843 276.924 247.502 277.262 248.178 277.262C248.565 277.262 248.951 277.166 249.289 276.941C314.776 234.678 361.687 166.974 377.973 91.1698C378.214 90.0593 377.506 88.9649 376.396 88.7235L376.398 88.7243Z" fill="#BEBFC4"/>
<path d="M380.086 66.8551C378.991 66.7103 377.913 67.4828 377.768 68.6094C377.51 70.4119 377.253 72.1983 376.979 74.0008C376.802 75.1274 377.575 76.1734 378.701 76.3505C378.814 76.3666 378.911 76.3827 379.023 76.3827C380.021 76.3827 380.89 75.6584 381.051 74.6446C381.325 72.8259 381.598 71.0074 381.856 69.1889C382.001 68.0462 381.212 67.0001 380.086 66.8552V66.8551Z" fill="#BEBFC4"/>
<path d="M381.647 51.6278C380.536 51.5473 379.523 52.3681 379.426 53.5108C379.297 55.1201 379.152 56.7295 378.991 58.339C378.879 59.4656 379.7 60.4795 380.826 60.5921C380.907 60.5921 380.971 60.6082 381.035 60.6082C382.081 60.6082 382.983 59.8196 383.079 58.7575C383.24 57.132 383.385 55.4904 383.53 53.8489C383.61 52.7063 382.773 51.7245 381.647 51.628V51.6278Z" fill="#BEBFC4"/>
<path d="M382.196 42.4731H380.136L380.039 43.9537C379.959 45.0803 380.812 46.0781 381.938 46.1586H382.099C383.162 46.1586 384.079 45.3378 384.143 44.2434L384.24 42.7306L382.196 42.4731Z" fill="#BEBFC4"/>
<path d="M326.559 108.731C326.881 108.924 327.235 109.004 327.573 109.004C328.281 109.004 328.989 108.634 329.359 107.958C336.231 95.92 342.089 83.1418 346.756 69.9446C347.143 68.8663 346.563 67.6915 345.501 67.3213C344.423 66.9512 343.248 67.4984 342.862 68.5767C338.275 81.532 332.53 94.1013 325.77 105.914C325.223 106.912 325.561 108.167 326.559 108.731L326.559 108.731Z" fill="#BEBFC4"/>
<path d="M347.221 62.154C347.43 62.2184 347.623 62.2506 347.816 62.2506C348.701 62.2506 349.506 61.6873 349.779 60.8022C350.391 58.8066 350.987 56.8109 351.55 54.7993C351.856 53.705 351.212 52.5623 350.117 52.2565C349.023 51.9507 347.897 52.5945 347.591 53.6889C347.044 55.6684 346.464 57.6318 345.853 59.5953C345.515 60.6736 346.126 61.8323 347.221 62.1542L347.221 62.154Z" fill="#BEBFC4"/>
<path d="M351.135 48.3936C351.296 48.4257 351.457 48.4579 351.618 48.4579C352.551 48.4579 353.388 47.8303 353.613 46.8808C353.903 45.6254 354.209 44.3862 354.483 43.1309C354.724 42.0204 354.032 40.926 352.921 40.6685C351.763 40.4271 350.717 41.1192 350.459 42.2297C350.185 43.4689 349.896 44.692 349.606 45.9151C349.349 47.0095 350.024 48.12 351.135 48.3935V48.3936Z" fill="#BEBFC4"/>
</svg>
