<svg width="412" height="412" fill="none" xmlns="http://www.w3.org/2000/svg"><path d="M98.17 164.285c.016.049.016.097.032.145.017.048.065.064.081.097 6.518 15.804 19.216 29.95 36.098 39.108 9.64 5.23 17.929 7.419 25.525 7.419 12.923 0 23.883-6.341 36.195-14.726l20.165 10.96c.306.161.644.258.982.258a2.04 2.04 0 001.802-1.079 2.065 2.065 0 00-.82-2.8l-20.166-10.96c.564-23.674-1.432-41.62-27.456-55.764-25.573-13.889-55.525-13.616-76.302.676-.306.209-.5.483-.644.804-.032.065-.048.129-.08.194a1.747 1.747 0 00-.13.498c0 .049-.031.097-.031.145-.242 8.482 1.464 16.963 4.747 25.026l.002-.001zm18.669-31.914l3.798 18.251-21.083-11.459c5.295-3.138 11.121-5.423 17.285-6.791v-.001zm50.68 8.079l8.352 40.186-22.869-12.424-7.483-36.002c7.451 1.449 14.886 4.056 22 7.79 0 .144-.033.305 0 .45zm-31.866 58.694c-.145.064-.257.161-.386.241-7.001-3.943-13.245-8.755-18.508-14.227l34.28-13.325 22.869 12.424-38.255 14.887zm-21.855-17.253c-4.539-5.262-8.224-11.024-10.928-17.075l20.552-7.983 22.886 12.425-32.51 12.633zm-16.223-39.092l21.099 11.459-17.397 6.759c-2.205-5.922-3.46-12.054-3.702-18.218zm42.441 59.065l38.625-15.016 13.373 7.275c-17.075 11.475-30.835 17.799-51.998 7.741zm53.98-11.378l-13.374-7.275-8.433-40.588c19.972 12.279 22.161 27.279 21.807 47.862v.001zm-52.835-58.982l7.097 34.135-22.885-12.425-4.49-21.581c6.567-1.014 13.39-1.063 20.278-.129zm153.983 53.154h.016c.032.016.048.033.08.049a1.98 1.98 0 001.03.273c.274 0 .564-.064.837-.177 5.343-2.366 10.123-5.922 14.163-10.348.032-.032.064-.032.08-.064.032-.033.048-.081.081-.113 7.886-8.707 12.923-20.745 13.631-33.894 1.11-20.278-8.53-27.971-22.419-36.13l.821-15.16a2.056 2.056 0 00-1.947-2.173c-1.239-.08-2.108.805-2.173 1.947l-.821 15.161c-14.693 6.582-25.122 13.18-26.232 33.475-1.111 19.924 7.853 38.415 22.853 47.153v.001zm-8.353-12.746l8.337-6.309-.741 13.535c-2.816-2.027-5.359-4.457-7.596-7.226zm-7.87-14.484l17.382-13.149-.869 15.917-11.137 8.433a47.969 47.969 0 01-5.375-11.201h-.001zm-2.526-18.492l21.066-15.949-.869 15.901-18.797 14.226a54.896 54.896 0 01-1.4-14.178zm41.443 16.367l-17.124-16.19.869-15.917 19.216 18.154a53.555 53.555 0 01-2.961 13.953zm-8.144 14.71l-10.155-9.592.869-15.917 15.837 14.968c-1.755 3.862-3.96 7.419-6.55 10.541h-.001zm-11.185 9.35l.74-13.551 7.613 7.194a39.663 39.663 0 01-8.353 6.357zm22.451-43.515l-19.087-18.041.482-8.916c10.912 6.582 18.122 12.923 18.605 26.957zm-22.708-27.167l-.483 8.917-20.938 15.852c2.028-13.937 9.881-19.441 21.421-24.768v-.001zM220.63 289.348c-.017-.097-.017-.225-.049-.306-.016-.032 0-.048-.016-.08s-.032-.049-.032-.065c-.048-.08-.097-.161-.145-.257-.064-.097-.113-.209-.193-.29a.822.822 0 01-.113-.129c-.016-.016-.016-.048-.032-.048-8.24-7.693-18.186-13.47-29.113-17.301-.065-.032-.113-.08-.177-.096-.081-.032-.177-.032-.274-.048-21.502-7.42-46.783-7.21-70.798 1.512-33.218 12.087-52.435 36.324-57.198 72.018l-29.387 10.67a2.072 2.072 0 00-1.24 2.639 2.056 2.056 0 001.932 1.352c.241 0 .467-.048.708-.129l29.371-10.686c17.784 16.255 37.225 24.463 58.1 24.463 10.332 0 21.003-1.996 31.995-5.987 36.42-13.245 62.586-43.343 66.678-76.669 0-.033-.016-.049 0-.081v-.161c.032-.096 0-.209-.016-.322l-.001.001zm-13.76 28.904l-23.642-13.518 32.799-11.926c-1.513 8.852-4.619 17.446-9.158 25.445l.001-.001zm7.741-29.307l-32.799 11.926 9.431-25.541c8.642 3.219 16.528 7.805 23.368 13.615zm-27.263-14.951l-10.606 28.712-34.553 12.569 16.882-45.74c9.834.096 19.377 1.609 28.277 4.458v.001zm-34.264 87.633l-49.118-28.084 34.553-12.569 44.018 25.171c-8.449 6.614-18.154 12.102-28.792 16.093a2.025 2.025 0 00-.66-.611h-.001zm-30.916-85.008c.113-.29.129-.596.097-.901 10.734-3.766 21.694-5.794 32.396-6.148l-17.558 47.54-34.553 12.57 19.618-53.061zm-4.731.933l-19.924 53.964-30.61 11.137c4.812-31.962 21.404-53.317 50.535-65.1l-.001-.001zm-49.152 68.977l30.627-11.12 49.955 28.566c-29.887 9.673-56.33 3.975-80.583-17.446h.001zm117.647-3.17c0-.016 0-.016-.016-.016l-42.325-24.205 34.569-12.57 26.571 15.209c-4.989 7.902-11.33 15.193-18.798 21.582h-.001zm17.62-202.377c.322 0 .644-.08.95-.241 24.157-12.618 46.206-28.872 65.499-48.266a2.044 2.044 0 00-.016-2.913 2.045 2.045 0 00-2.913.016 261.657 261.657 0 01-64.486 47.508 2.055 2.055 0 00-.869 2.784 2.07 2.07 0 001.835 1.11v.002zm73.629-57.004c.563 0 1.126-.226 1.529-.676a248.614 248.614 0 006.888-7.935 2.062 2.062 0 00-.258-2.896 2.062 2.062 0 00-2.897.257 257.706 257.706 0 01-6.791 7.822 2.077 2.077 0 00.145 2.912c.386.338.885.515 1.384.515zm14.695-17.769c.628 0 1.239-.274 1.642-.821a265.735 265.735 0 005.101-6.985 2.058 2.058 0 00-.482-2.864 2.064 2.064 0 00-2.865.498 234.353 234.353 0 01-5.038 6.873c-.692.9-.498 2.205.403 2.88.37.29.804.419 1.239.419zm9.609-15.595c.354.225.74.338 1.126.338.676 0 1.336-.322 1.723-.933a220.435 220.435 0 003.878-6.148 2.062 2.062 0 00-.676-2.833 2.062 2.062 0 00-2.832.676 257.977 257.977 0 01-3.831 6.052c-.611.965-.354 2.237.612 2.848zm74.913 38.11c-1.159-.257-2.205.467-2.446 1.577-16.045 74.741-62.299 141.498-126.9 183.163-.95.612-1.239 1.899-.612 2.849a2.084 2.084 0 001.738.949c.387 0 .773-.096 1.111-.321 65.487-42.263 112.398-109.967 128.684-185.771a2.059 2.059 0 00-1.577-2.447l.002.001zm3.688-21.869c-1.095-.145-2.173.628-2.318 1.754a625.127 625.127 0 01-.789 5.392 2.057 2.057 0 001.722 2.35c.113.016.21.032.322.032.998 0 1.867-.725 2.028-1.738.274-1.82.547-3.638.805-5.456.145-1.143-.644-2.189-1.77-2.334zm1.561-15.227c-1.111-.08-2.124.74-2.221 1.883-.129 1.61-.274 3.218-.435 4.828a2.059 2.059 0 001.835 2.253c.081 0 .145.016.209.016a2.046 2.046 0 002.044-1.85c.161-1.626.306-3.268.451-4.91a2.07 2.07 0 00-1.883-2.22zm.549-9.155h-2.06l-.097 1.48a2.067 2.067 0 001.899 2.206h.161c1.063 0 1.98-.821 2.044-1.916l.097-1.512-2.044-.258zm-55.637 66.258c.322.193.676.273 1.014.273.708 0 1.416-.37 1.786-1.046a234.669 234.669 0 0017.397-38.013 2.05 2.05 0 00-1.255-2.624 2.074 2.074 0 00-2.639 1.256c-4.587 12.955-10.332 25.524-17.092 37.337a2.078 2.078 0 00.789 2.817zm20.662-46.577c.209.064.402.097.595.097.885 0 1.69-.564 1.963-1.449a253.423 253.423 0 001.771-6.003 2.068 2.068 0 00-1.433-2.542 2.05 2.05 0 00-2.526 1.432 191.708 191.708 0 01-1.738 5.906 2.036 2.036 0 001.368 2.56v-.001zm3.914-13.76a2.5 2.5 0 00.483.064c.933 0 1.77-.628 1.995-1.577.29-1.256.596-2.495.87-3.75a2.073 2.073 0 00-1.562-2.462c-1.158-.242-2.204.45-2.462 1.56-.274 1.24-.563 2.463-.853 3.686a2.071 2.071 0 001.529 2.479z" fill="#BEBFC4"/></svg>