<svg width="32" height="32" viewBox="0 0 32 32" fill="none" xmlns="http://www.w3.org/2000/svg">
<path d="M25.7133 10.3003C25.2924 9.76255 24.6378 9.4357 23.9603 9.4357H9.72643L9.28271 7.70644C9.02523 6.7012 8.13779 6 7.1088 6H4.72495C4.32779 6 4 6.32685 4 6.72495C4 7.12211 4.32685 7.4499 4.72495 7.4499H7.1088C7.4594 7.4499 7.76344 7.68363 7.85656 8.03423L10.7079 19.3941C10.9654 20.3994 11.8528 21.1006 12.8818 21.1006H22.2073C23.2353 21.1006 24.1475 20.3994 24.3812 19.3941L26.1342 12.1949C26.2976 11.5394 26.1579 10.8382 25.7133 10.3004L25.7133 10.3003ZM24.709 11.8662L22.956 19.0654C22.8629 19.416 22.5588 19.6497 22.2082 19.6497H12.8818C12.5312 19.6497 12.2272 19.416 12.134 19.0654L10.1007 10.9085H23.9614C24.1951 10.9085 24.4289 11.0254 24.5695 11.2126C24.7092 11.3988 24.7785 11.6326 24.7092 11.8663L24.709 11.8662Z" fill="#43464E"/>
<path d="M13.3732 22.0334C12.0411 22.0334 10.9429 23.1318 10.9429 24.4638C10.9429 25.7958 12.0412 26.8942 13.3732 26.8942C14.7053 26.8951 15.8036 25.7967 15.8036 24.4645C15.8036 23.1323 14.7052 22.0332 13.3732 22.0332V22.0334ZM13.3732 25.4226C12.8355 25.4226 12.4146 25.0017 12.4146 24.4639C12.4146 23.9261 12.8355 23.5052 13.3732 23.5052C13.911 23.5052 14.3319 23.9261 14.3319 24.4639C14.331 24.9788 13.8873 25.4226 13.3732 25.4226Z" fill="#43464E"/>
<path d="M21.4133 22.0334C20.0812 22.0334 18.9829 23.1318 18.9829 24.4638C18.9829 25.7958 20.0813 26.8942 21.4133 26.8942C22.7453 26.8942 23.8436 25.7958 23.8436 24.4638C23.8208 23.1326 22.7453 22.0334 21.4133 22.0334ZM21.4133 25.4226C20.8755 25.4226 20.4546 25.0017 20.4546 24.4639C20.4546 23.9261 20.8755 23.5052 21.4133 23.5052C21.951 23.5052 22.372 23.9261 22.372 24.4639C22.372 24.9788 21.9273 25.4226 21.4133 25.4226Z" fill="#43464E"/>
</svg>
