<svg width="32" height="32" viewBox="0 0 32 32" fill="none" xmlns="http://www.w3.org/2000/svg">
<path d="M2.49995 5.45C1.92005 5.45 1.44995 5.9201 1.44995 6.5C1.44995 7.0799 1.92005 7.55 2.49995 7.55H6.49995C6.65492 7.55 6.92031 7.63609 7.25412 7.92222C7.576 8.19812 7.86763 8.58322 8.0608 8.96957C8.13402 9.11601 8.2797 9.57744 8.48203 10.375C8.67255 11.1261 8.88729 12.064 9.11443 13.071L9.2551 13.6959C9.66395 15.5139 10.1038 17.4697 10.487 18.7772C10.6013 19.2216 10.8558 19.8532 11.2885 20.4009C11.7338 20.9645 12.4651 21.55 13.5 21.55H21C21.5502 21.55 22.3674 21.4241 23.1346 21.0378C23.9227 20.641 24.7251 19.9286 25.0186 18.7547C25.1354 18.2876 25.289 17.7038 25.4558 17.0698C25.8395 15.6121 26.293 13.8885 26.5296 12.7059C26.9292 10.7078 25.0906 8.95 23 8.95H14.5C13.9201 8.95 13.45 9.4201 13.45 10C13.45 10.5799 13.9201 11.05 14.5 11.05H23C24.1093 11.05 24.5467 11.9124 24.4703 12.2941C24.2464 13.4139 23.8258 15.0112 23.4497 16.4397C23.2763 17.0986 23.1122 17.7217 22.9813 18.2453C22.8748 18.6714 22.5938 18.959 22.1903 19.1622C21.7659 19.3758 21.283 19.45 21 19.45H13.5C13.3348 19.45 13.1494 19.3688 12.9364 19.0991C12.7181 18.8228 12.5739 18.4666 12.5186 18.2453C12.5151 18.2314 12.5113 18.2175 12.5073 18.2037C12.1435 16.9669 11.7176 15.0739 11.3019 13.2261L11.163 12.609C10.9364 11.6043 10.7159 10.6405 10.5176 9.85869C10.331 9.12337 10.1342 8.42064 9.9391 8.03042C9.63227 7.41677 9.1739 6.80188 8.62078 6.32778C8.07959 5.8639 7.34498 5.45 6.49995 5.45H2.49995Z" fill="#43464E"/>
<path d="M14 23C12.9038 23 12 23.9039 12 25C12 26.0961 12.9039 27 14 27C15.0962 27.0007 16 26.0969 16 25.0006C16 23.9043 15.0961 23 14 23Z" fill="#43464E"/>
<path d="M22 23C20.9038 23 20 23.9039 20 25C20 26.0961 20.9039 27 22 27C23.0962 27.0007 24 26.0969 24 25.0006C24 23.9043 23.0961 23 22 23Z" fill="#43464E"/>
</svg>
