<svg width="19" height="18" viewBox="0 0 19 18" fill="none" xmlns="http://www.w3.org/2000/svg">
<path d="M18.2697 3.6314C17.9261 3.19244 17.3917 2.92564 16.8388 2.92564H5.22016L4.85797 1.51412C4.6478 0.693576 3.92341 0.121212 3.08349 0.121212H1.13765C0.813459 0.121212 0.545898 0.38801 0.545898 0.712959C0.545898 1.03715 0.812696 1.30471 1.13765 1.30471H3.08349C3.36967 1.30471 3.61785 1.49549 3.69386 1.78168L6.02128 11.0543C6.23145 11.8749 6.95584 12.4472 7.79576 12.4472H15.4078C16.247 12.4472 16.9915 11.8749 17.1823 11.0543L18.6132 5.17789C18.7466 4.64279 18.6326 4.07042 18.2696 3.63146L18.2697 3.6314ZM17.4499 4.90953L16.019 10.786C15.9429 11.0722 15.6948 11.263 15.4086 11.263H7.79578C7.5096 11.263 7.26142 11.0722 7.18541 10.786L5.52571 4.12787H16.8396C17.0304 4.12787 17.2212 4.22326 17.336 4.37605C17.45 4.52808 17.5066 4.71887 17.45 4.90966L17.4499 4.90953Z" fill="white"/>
<path d="M8.1967 13.2088C7.10936 13.2088 6.21289 14.1054 6.21289 15.1927C6.21289 16.2799 7.10944 17.1765 8.1967 17.1765C9.28404 17.1772 10.1805 16.2807 10.1805 15.1932C10.1805 14.1058 9.28396 13.2087 8.1967 13.2087V13.2088ZM8.1967 15.9753C7.75774 15.9753 7.41417 15.6317 7.41417 15.1927C7.41417 14.7538 7.75774 14.4102 8.1967 14.4102C8.63567 14.4102 8.97924 14.7538 8.97924 15.1927C8.97849 15.6131 8.6163 15.9753 8.1967 15.9753Z" fill="white"/>
<path d="M14.7602 13.2087C13.6728 13.2087 12.7764 14.1052 12.7764 15.1925C12.7764 16.2797 13.6729 17.1763 14.7602 17.1763C15.8474 17.1763 16.744 16.2797 16.744 15.1925C16.7254 14.1059 15.8474 13.2087 14.7602 13.2087ZM14.7602 15.9751C14.3212 15.9751 13.9776 15.6315 13.9776 15.1925C13.9776 14.7536 14.3212 14.41 14.7602 14.41C15.1991 14.41 15.5427 14.7536 15.5427 15.1925C15.5427 15.6129 15.1798 15.9751 14.7602 15.9751Z" fill="white"/>
</svg>
