<svg width="18" height="11" viewBox="0 0 18 11" fill="none" xmlns="http://www.w3.org/2000/svg">
<path d="M8.97861 10.175C12.1259 10.175 15.1038 8.48223 17.1481 5.52987C17.2281 5.41386 17.2281 5.26093 17.1481 5.1458C15.1038 2.19267 12.1261 0.5 8.97861 0.5C5.83109 0.5 2.85344 2.19364 0.809986 5.1458C0.730005 5.26181 0.730005 5.41474 0.809986 5.52987C2.85344 8.4812 5.83109 10.175 8.97861 10.175ZM8.97861 1.175C11.8334 1.175 14.5465 2.68936 16.4572 5.3375C14.5464 7.98575 11.8323 9.5 8.97861 9.5C6.12381 9.5 3.41076 7.98651 1.50096 5.3375C3.40995 2.68857 6.12404 1.175 8.97861 1.175Z" fill="#72757E"/>
<path d="M8.97821 8.96187C10.9777 8.96187 12.6036 7.33588 12.6036 5.33644C12.6036 3.33781 10.9776 1.71191 8.97821 1.71191C6.97877 1.71191 5.35278 3.3379 5.35278 5.33734C5.35278 7.33597 6.97877 8.96187 8.97821 8.96187ZM8.97821 2.38669C10.6051 2.38669 11.9286 3.71032 11.9286 5.33712C11.9286 6.9631 10.605 8.28664 8.97821 8.28664C7.35141 8.28664 6.02778 6.96389 6.02778 5.33712C6.02778 3.71025 7.35141 2.38669 8.97821 2.38669Z" fill="#72757E"/>
<path d="M8.97898 7.45459C10.147 7.45459 11.0972 6.50448 11.0972 5.33641C11.0972 4.16922 10.147 3.21912 8.97898 3.21912C8.64324 3.21912 8.31892 3.29734 8.01659 3.45114C7.87509 3.52321 7.80302 3.68406 7.84345 3.83787L8.0623 4.66668L7.33984 4.51199C7.1667 4.47508 6.99354 4.57879 6.94521 4.74842C6.88984 4.94266 6.86084 5.14041 6.86084 5.33641C6.86084 6.50448 7.81095 7.45459 8.97901 7.45459H8.97898Z" fill="#72757E"/>
</svg>
