<svg width="32" height="32" viewBox="0 0 32 32" fill="none" xmlns="http://www.w3.org/2000/svg">
<path d="M15.9995 26C15.7978 26 15.5961 25.9353 15.4282 25.8058L14.9415 25.4302C10.471 21.9883 7.77306 19.9102 6.20252 17.1376C4.69677 14.4882 4.87765 12.3956 5.29281 11.1074C5.79905 9.54183 6.93781 8.28192 8.50213 7.5594C9.30643 7.18905 10.181 7 11.0985 7C13.0389 7 14.8323 7.82227 15.9997 9.17802C17.1671 7.82227 18.9592 7 20.9009 7C21.8184 7 22.6917 7.18776 23.496 7.5581C25.0603 8.28066 26.2004 9.53931 26.7066 11.1061C27.1231 12.3932 27.3027 14.4857 25.7969 17.1363C24.2248 19.9087 21.5231 21.9897 17.0473 25.4366L16.5723 25.8056C16.4031 25.9351 16.2012 26 15.9995 26ZM11.0983 8.85943C10.4528 8.85943 9.84373 8.98892 9.28671 9.24532C8.20132 9.74644 7.41394 10.6089 7.07038 11.6758C6.637 13.0161 6.89989 14.5894 7.8278 16.2236C9.20471 18.6541 11.6229 20.5254 15.998 23.896C20.3735 20.5267 22.7916 18.6531 24.1683 16.2249C25.0975 14.5895 25.3591 13.0162 24.927 11.6758C24.5821 10.6102 23.7948 9.74644 22.7094 9.24532C22.1537 8.98893 21.5446 8.85943 20.8991 8.85943C19.1461 8.85943 17.5168 9.82802 16.8451 11.2692C16.6929 11.5981 16.361 11.8079 15.9979 11.8079C15.6335 11.8079 15.3042 11.5981 15.1506 11.2692C14.4804 9.82799 12.8513 8.85943 11.0983 8.85943Z" fill="#43464E"/>
</svg>
