<svg width="14" height="13" viewBox="0 0 14 13" fill="none" xmlns="http://www.w3.org/2000/svg">
<path d="M13.3998 5.56309H12.4398C12.2402 4.79298 11.5452 4.25551 10.7493 4.25551C9.95342 4.25551 9.2584 4.79298 9.05888 5.56309H0.441759C0.198055 5.56309 0 5.76114 0 6.00485C0 6.24855 0.198055 6.44661 0.441759 6.44661H9.05888C9.2584 7.21672 9.95342 7.75419 10.7493 7.75419C11.5452 7.75419 12.2402 7.21672 12.4398 6.44661H13.3998C13.6435 6.44661 13.8416 6.24855 13.8416 6.00485C13.8416 5.76114 13.6435 5.56309 13.3998 5.56309ZM10.7494 6.87067C10.399 6.87067 10.0839 6.65936 9.94986 6.33616C9.81513 6.01295 9.88949 5.6404 10.1369 5.39229C10.385 5.14491 10.7575 5.07055 11.0807 5.20528C11.4039 5.33928 11.6152 5.65439 11.6152 6.00485C11.6152 6.48269 11.2272 6.87069 10.7494 6.87069L10.7494 6.87067ZM13.3998 9.81567H8.61131C8.41179 9.04556 7.71677 8.50809 6.92087 8.50809C6.12498 8.50809 5.42996 9.04556 5.23043 9.81567H0.44191C0.198206 9.81567 0.000150809 10.0137 0.000150809 10.2574C0.000150809 10.5011 0.198206 10.6992 0.44191 10.6992H5.23043C5.42996 11.4693 6.12498 12.0068 6.92087 12.0068C7.71677 12.0068 8.41179 11.4693 8.61131 10.6992H13.3998C13.6435 10.6992 13.8416 10.5011 13.8416 10.2574C13.8416 10.0137 13.6435 9.81567 13.3998 9.81567ZM6.92083 11.1262C6.57037 11.1262 6.25527 10.9149 6.12126 10.5917C5.98653 10.2685 6.06089 9.89593 6.30827 9.64781C6.55639 9.40043 6.92894 9.32608 7.25214 9.4608C7.57535 9.5948 7.78665 9.90992 7.78665 10.2604C7.78665 10.7382 7.39865 11.1262 6.92081 11.1262L6.92083 11.1262ZM0.441835 2.1911H1.40191C1.60144 2.96121 2.29646 3.49868 3.09235 3.49868C3.88825 3.49868 4.58327 2.96121 4.78279 2.1911H13.3999C13.6436 2.1911 13.8417 1.99305 13.8417 1.74934C13.8417 1.50564 13.6436 1.30758 13.3999 1.30758H4.78279C4.58327 0.53747 3.88825 0 3.09235 0C2.29646 0 1.60144 0.53747 1.40191 1.30758H0.441835C0.19813 1.30758 7.54944e-05 1.50564 7.54944e-05 1.74934C7.54944e-05 1.99305 0.19813 2.1911 0.441835 2.1911ZM3.09224 0.88352C3.4427 0.88352 3.7578 1.09483 3.89181 1.41803C4.02654 1.74124 3.95218 2.11379 3.7048 2.3619C3.45669 2.60928 3.08414 2.68364 2.76093 2.54891C2.43773 2.41491 2.22642 2.0998 2.22642 1.74934C2.22642 1.51962 2.31772 1.29949 2.4797 1.13678C2.64241 0.974803 2.86254 0.883499 3.09226 0.883499L3.09224 0.88352Z" fill="#43464E"/>
</svg>
