<svg width="16" height="18" viewBox="0 0 16 18" fill="none" xmlns="http://www.w3.org/2000/svg">
<path fill-rule="evenodd" clip-rule="evenodd" d="M9.43973 17.4H13.0397C14.2327 17.4 15.1997 16.3743 15.1997 15.1091V2.89088C15.1997 1.62565 14.2327 0.599976 13.0397 0.599976H9.43973C9.04208 0.599976 8.71973 0.941867 8.71973 1.36361C8.71973 1.78536 9.04208 2.12725 9.43973 2.12725H13.0397C13.4374 2.12725 13.7597 2.46914 13.7597 2.89088V15.1091C13.7597 15.5308 13.4374 15.8727 13.0397 15.8727H9.43973C9.04208 15.8727 8.71973 16.2146 8.71973 16.6363C8.71973 17.0581 9.04208 17.4 9.43973 17.4ZM6.77065 11.5146C6.48947 11.8128 6.48947 12.2963 6.77065 12.5945C7.05183 12.8927 7.5077 12.8927 7.78888 12.5945L10.6649 9.54415C10.6806 9.52782 10.6955 9.51073 10.7097 9.49295C10.7495 9.44315 10.7823 9.38923 10.8081 9.33262C10.854 9.23207 10.8798 9.11922 10.8798 8.99998C10.8798 8.8766 10.8522 8.76006 10.8032 8.65692C10.7811 8.61021 10.7541 8.56541 10.7224 8.52334C10.7042 8.49925 10.6847 8.47636 10.6639 8.45478L7.78888 5.40547C7.5077 5.10725 7.05183 5.10725 6.77065 5.40547C6.48947 5.70369 6.48947 6.1872 6.77065 6.48541L8.42152 8.23634H1.5198C1.12216 8.23634 0.799805 8.57823 0.799805 8.99998C0.799805 9.42172 1.12216 9.76361 1.5198 9.76361H8.42154L6.77065 11.5146Z" fill="#43464E"/>
<mask id="mask0" mask-type="alpha" maskUnits="userSpaceOnUse" x="0" y="0" width="16" height="18">
<path fill-rule="evenodd" clip-rule="evenodd" d="M9.43973 17.4H13.0397C14.2327 17.4 15.1997 16.3743 15.1997 15.1091V2.89088C15.1997 1.62565 14.2327 0.599976 13.0397 0.599976H9.43973C9.04208 0.599976 8.71973 0.941867 8.71973 1.36361C8.71973 1.78536 9.04208 2.12725 9.43973 2.12725H13.0397C13.4374 2.12725 13.7597 2.46914 13.7597 2.89088V15.1091C13.7597 15.5308 13.4374 15.8727 13.0397 15.8727H9.43973C9.04208 15.8727 8.71973 16.2146 8.71973 16.6363C8.71973 17.0581 9.04208 17.4 9.43973 17.4ZM6.77065 11.5146C6.48947 11.8128 6.48947 12.2963 6.77065 12.5945C7.05183 12.8927 7.5077 12.8927 7.78888 12.5945L10.6649 9.54415C10.6806 9.52782 10.6955 9.51073 10.7097 9.49295C10.7495 9.44315 10.7823 9.38923 10.8081 9.33262C10.854 9.23207 10.8798 9.11922 10.8798 8.99998C10.8798 8.8766 10.8522 8.76006 10.8032 8.65692C10.7811 8.61021 10.7541 8.56541 10.7224 8.52334C10.7042 8.49925 10.6847 8.47636 10.6639 8.45478L7.78888 5.40547C7.5077 5.10725 7.05183 5.10725 6.77065 5.40547C6.48947 5.70369 6.48947 6.1872 6.77065 6.48541L8.42152 8.23634H1.5198C1.12216 8.23634 0.799805 8.57823 0.799805 8.99998C0.799805 9.42172 1.12216 9.76361 1.5198 9.76361H8.42154L6.77065 11.5146Z" fill="white"/>
</mask>
<g mask="url(#mask0)">
</g>
</svg>
