<svg width="15" height="17" viewBox="0 0 15 17" fill="none" xmlns="http://www.w3.org/2000/svg">
<path d="M7.2745 12.3907C7.2745 12.2558 7.16512 12.1457 7.02951 12.1457H1.49568C1.62297 9.7323 3.62648 7.80881 6.07006 7.80881C6.9528 7.80881 7.80997 8.06021 8.54819 8.53676C8.66205 8.60968 8.81301 8.5777 8.88657 8.46384C8.96014 8.34998 8.92687 8.19837 8.81365 8.12545C7.99615 7.59835 7.04754 7.31946 6.07007 7.31946C3.27475 7.31946 1 9.59486 1 12.3908C1 12.5258 1.10938 12.6358 1.245 12.6358H7.03019C7.16453 12.6352 7.27455 12.5258 7.27455 12.3908L7.2745 12.3907Z" fill="#43464E" stroke="#43464E" stroke-width="0.3"/>
<path d="M5.98463 6.86511C7.60237 6.86511 8.91817 5.54929 8.91817 3.93157C8.91817 2.31511 7.60235 1 5.98463 1C4.36817 1 3.05371 2.31516 3.05371 3.93157C3.05371 5.54931 4.36824 6.86511 5.98463 6.86511ZM5.98463 1.48931C7.33179 1.48931 8.42821 2.58507 8.42821 3.93157C8.42821 5.27937 7.33181 6.37581 5.98463 6.37581C4.63811 6.37581 3.54302 5.27941 3.54302 3.93157C3.54302 2.58505 4.63878 1.48931 5.98463 1.48931Z" fill="#43464E" stroke="#43464E" stroke-width="0.3"/>
<path d="M14.0557 15.2693L12.36 12.8021C12.6837 12.3761 12.8628 11.8618 12.8666 11.3181C12.8769 9.94343 11.7664 8.81703 10.3918 8.80606C9.02223 8.79966 7.89006 9.90822 7.8804 11.2829C7.87656 11.8407 8.05952 12.355 8.3672 12.7733L6.63433 15.2163C6.57612 15.2988 6.5742 15.4082 6.62985 15.4926C6.6855 15.577 6.78657 15.6186 6.88508 15.5975L8.2559 15.3045L8.49707 16.5928C8.51626 16.6945 8.5975 16.7739 8.69985 16.7898C8.71264 16.7918 8.72544 16.793 8.73759 16.793C8.82651 16.793 8.90967 16.7444 8.95252 16.6645L10.354 14.0706L11.7191 16.6836C11.762 16.7655 11.8458 16.8154 11.936 16.8154C11.9475 16.8154 11.959 16.8148 11.9705 16.8128C12.0728 16.7981 12.1554 16.7207 12.1758 16.619L12.4355 15.3352L13.8 15.6474C13.8978 15.6697 14.0008 15.6301 14.0571 15.5463C14.1134 15.4618 14.1134 15.3518 14.0558 15.2693L14.0557 15.2693ZM10.3749 9.29594H10.3877C11.4925 9.30425 12.3847 10.21 12.3766 11.3147C12.3734 11.8495 12.161 12.351 11.7797 12.7265C11.4017 13.0988 10.9034 13.3028 10.3737 13.3028H10.3584C9.25368 13.2952 8.36138 12.3907 8.36908 11.286C8.3774 10.1858 9.27614 9.29603 10.3751 9.29603L10.3749 9.29594ZM8.84996 15.822L8.69004 14.9667C8.67788 14.9021 8.64014 14.8445 8.58513 14.8081C8.53012 14.771 8.46231 14.7582 8.39835 14.7723L7.39598 14.9866L8.7022 13.1449C9.04891 13.459 9.48388 13.6765 9.96621 13.7558L8.84996 15.822ZM12.299 14.8004C12.2344 14.7857 12.1672 14.7978 12.1116 14.833C12.0559 14.8689 12.0175 14.9258 12.0041 14.9904L11.832 15.8431L10.7452 13.7616C11.2173 13.6912 11.6555 13.4878 12.0182 13.1686L13.2969 15.028L12.299 14.8004Z" fill="#43464E" stroke="#43464E" stroke-width="0.3"/>
</svg>
