<svg width="21" height="16" viewBox="0 0 21 16" fill="none" xmlns="http://www.w3.org/2000/svg">
<path d="M18.4067 16H2.40667C1.20212 16 0.224854 15.0227 0.224854 13.8182V2.18182C0.224854 0.977268 1.20212 0 2.40667 0H18.4067C19.6112 0 20.5885 0.977268 20.5885 2.18182V13.8182C20.5885 15.0227 19.6112 16 18.4067 16ZM2.40667 1.45455C2.00484 1.45455 1.6794 1.77999 1.6794 2.18182V13.8182C1.6794 14.0109 1.75576 14.1964 1.89213 14.3327C2.02849 14.4691 2.21394 14.5454 2.40666 14.5454H18.4067C18.5994 14.5454 18.7848 14.4691 18.9212 14.3327C19.0576 14.1964 19.1339 14.0109 19.1339 13.8182V2.18182C19.1339 1.98909 19.0576 1.80364 18.9212 1.66728C18.7848 1.53092 18.5994 1.45455 18.4067 1.45455L2.40667 1.45455Z" fill="#1D1F22"/>
<path d="M10.4065 8.3493C9.92557 8.35021 9.45739 8.19111 9.07555 7.89839L0.995494 1.68015C0.676402 1.43469 0.615497 0.97743 0.86095 0.658337C1.1064 0.339245 1.56367 0.278341 1.88276 0.523793L9.96282 6.74203C10.2246 6.94294 10.5883 6.94294 10.8501 6.74203L18.9302 0.523793C19.2492 0.278336 19.7065 0.339247 19.952 0.658337C20.1974 0.977427 20.1365 1.43469 19.8174 1.68015L11.7374 7.89839C11.3556 8.19111 10.8874 8.3502 10.4064 8.3493H10.4065Z" fill="#1D1F22"/>
</svg>
