<svg width="15" height="14" viewBox="0 0 15 14" fill="none" xmlns="http://www.w3.org/2000/svg">
<path d="M4.99994 0C3.66791 0 2.46095 0.274694 1.55729 0.748913C0.65363 1.22313 0 1.93038 0 2.80435V11.201C0 12.0668 0.64648 12.7706 1.55207 13.2456C2.45767 13.7206 3.66673 14 5.00006 14C6.1205 14 7.15171 13.7991 7.98971 13.4533C8.64465 13.8018 9.38358 14 10.1667 14C12.832 14 15 11.7245 15 8.92701C15 6.12952 12.832 3.85402 10.1667 3.85402C10.1094 3.85402 10.0515 3.85744 9.99483 3.85949V2.80444C9.99483 1.93047 9.3464 1.22323 8.44275 0.74901C7.53911 0.27479 6.3321 9.62591e-05 5.00011 9.62591e-05L4.99994 0ZM4.99994 0.705181C6.24538 0.705181 7.37109 0.976463 8.15625 1.38849C8.94142 1.80053 9.33855 2.32534 9.33855 2.80435C9.1836 3.54712 8.66472 3.95642 8.15625 4.21473C7.37111 4.62678 6.24543 4.89804 4.99994 4.89804C3.75445 4.89804 2.62879 4.62676 1.84362 4.21473C1.26159 3.89835 0.732296 3.41592 0.66133 2.80435C0.66133 2.32534 1.05846 1.80054 1.84362 1.38849C2.62879 0.976446 3.75445 0.705181 4.99994 0.705181ZM0.66663 4.22566C0.913378 4.46414 1.21871 4.67665 1.55726 4.85433C2.4609 5.32855 3.66791 5.60324 4.99991 5.60324C5.57737 5.60324 6.12945 5.54721 6.64573 5.45017C6.2525 5.88887 5.93415 6.40136 5.70824 6.96441C5.47777 6.98559 5.24144 7.00268 4.99991 7.00268C3.75643 7.00268 2.63275 6.73071 1.84892 6.31936C1.06509 5.90801 0.66663 5.39072 0.66663 4.90351V4.22566ZM10.1666 4.55366C12.4719 4.55366 14.3332 6.50728 14.3332 8.92692C14.3332 11.3466 12.4719 13.3002 10.1666 13.3002C7.86126 13.3002 5.99993 11.3466 5.99993 8.92692C5.99993 6.50728 7.86126 4.55366 10.1666 4.55366ZM0.66663 6.32483C0.912078 6.56195 1.21481 6.77104 1.55204 6.94802C2.45699 7.42292 3.66603 7.70241 5.00002 7.70241C5.16278 7.70241 5.32099 7.69421 5.47919 7.68601C5.38414 8.08301 5.33335 8.49916 5.33335 8.92693C5.33335 8.98365 5.33661 9.04036 5.33856 9.0964C5.22658 9.10118 5.1146 9.10186 5.00003 9.10186C3.75655 9.10186 2.63288 8.8299 1.84905 8.41855C1.06522 8.0072 0.666755 7.48991 0.666755 7.00269L0.66663 6.32483ZM0.66663 8.424C0.912078 8.66111 1.21481 8.87021 1.55204 9.04719C2.45699 9.52209 3.66603 9.80158 5.00002 9.80158C5.13674 9.80158 5.2728 9.79748 5.40627 9.79064C5.4857 10.2724 5.62892 10.7316 5.82813 11.1573C5.55925 11.1853 5.28452 11.201 5.00001 11.201C3.75653 11.201 2.63285 10.9291 1.84902 10.5177C1.06519 10.1064 0.66673 9.58907 0.66673 9.10185L0.66663 8.424ZM0.66663 10.5232C0.912078 10.7603 1.21481 10.9694 1.55204 11.1464C2.45699 11.6213 3.66603 11.9007 5.00002 11.9007C5.41539 11.9007 5.81838 11.8761 6.20315 11.8242C6.49611 12.2649 6.85223 12.649 7.26044 12.9722C6.6029 13.1751 5.82882 13.3002 5.00012 13.3002C3.75665 13.3002 2.63364 13.0282 1.84914 12.6169C1.06464 12.2055 0.666846 11.6882 0.666846 11.201L0.66663 10.5232Z" fill="#43464E"/>
</svg>
