<svg width="13" height="14" viewBox="0 0 13 14" fill="none" xmlns="http://www.w3.org/2000/svg">
<path d="M12.629 9.68634L9.78529 8.46759C9.66381 8.41582 9.5288 8.40491 9.40058 8.43651C9.27236 8.4681 9.15787 8.5405 9.07436 8.64279L7.81498 10.1815C5.83851 9.24957 4.2479 7.65897 3.31602 5.68249L4.85469 4.42312C4.95718 4.33976 5.02973 4.22527 5.06134 4.09699C5.09295 3.96871 5.08191 3.83362 5.02988 3.71218L3.81113 0.868432C3.75403 0.73752 3.65304 0.630635 3.52558 0.566207C3.39811 0.501779 3.25216 0.483847 3.11289 0.515502L0.472266 1.12488C0.337992 1.15588 0.218193 1.23149 0.132421 1.33935C0.046649 1.44721 -3.09311e-05 1.58096 1.53771e-08 1.71876C1.53771e-08 8.23146 5.27871 13.5 11.7812 13.5C11.9191 13.5001 12.0529 13.4534 12.1608 13.3677C12.2687 13.2819 12.3444 13.1621 12.3754 13.0277L12.9848 10.3871C13.0162 10.2472 12.9979 10.1006 12.933 9.97274C12.8681 9.84483 12.7606 9.74356 12.629 9.68634Z" fill="#43464E"/>
</svg>
