<svg width="24" height="24" viewBox="0 0 24 24" fill="none" xmlns="http://www.w3.org/2000/svg">
<path d="M18.9138 8.38499L15.7625 4.5H7.65127L4.5 8.38499V19.0935H18.915L18.9138 8.38499ZM17.6673 8.124H12.1215V5.30514H15.3712L17.6673 8.124ZM8.04155 5.30514H11.2913V8.124H5.74541L8.04155 5.30514ZM5.30538 18.2876V8.90512H18.1074V18.2876H5.30538Z" fill="#72757E"/>
<path d="M12.4381 13.5256L12.769 13.1995H10.8615C10.6071 13.1995 10.3786 13.225 10.1998 13.3503C9.84415 13.601 9.76764 14.0026 9.86897 14.2778C9.94547 14.5784 10.174 14.9045 10.632 14.93C11.0135 14.9555 11.395 14.9555 11.8023 14.9555H12.3875H12.6676C12.922 14.9555 13.0998 15.1562 13.0998 15.3815C13.0988 15.6067 12.8961 15.782 12.6666 15.782H12.3865H11.8271H11.7765H11.242C11.0135 15.782 10.8098 15.782 10.5803 15.7566C9.84315 15.7066 9.23214 15.2052 9.05432 14.4775C8.85065 13.7509 9.13081 13.0232 9.76665 12.5972C10.1481 12.3465 10.5555 12.2966 10.9111 12.2966H12.8186L12.4113 11.9705C12.3348 11.8951 12.2841 11.7697 12.2841 11.6698C12.2841 11.5699 12.3348 11.4446 12.4113 11.3692C12.4888 11.2947 12.6159 11.2693 12.7173 11.2693C12.8186 11.2693 12.9458 11.3192 13.0223 11.3946L14.1161 12.4729C14.1926 12.5483 14.2433 12.6736 14.2174 12.7735C14.2174 12.8734 14.1668 12.9988 14.0903 13.0742L13.0471 14.1524C12.9706 14.2278 12.8434 14.2778 12.7421 14.2778C12.6149 14.2778 12.5136 14.2278 12.4371 14.1524C12.3606 14.077 12.3099 13.9517 12.3099 13.8518C12.2851 13.7264 12.3358 13.6011 12.4381 13.5256Z" fill="#72757E"/>
</svg>
