<svg width="24" height="24" viewBox="0 0 24 24" fill="none" xmlns="http://www.w3.org/2000/svg">
<path fill-rule="evenodd" clip-rule="evenodd" d="M12.4548 2.14314L13.7486 3.62063L15.6836 2.79938C15.9967 2.66719 16.3586 2.83781 16.458 3.16125L17.0486 5.06531L19.1477 5.10281C19.487 5.10844 19.7523 5.40936 19.7102 5.74688L19.4767 7.72875L21.3799 8.61656C21.6677 8.75156 21.7924 9.09469 21.6573 9.38249C21.3977 9.91969 20.928 10.6125 20.6102 11.1459L21.9883 12.7331C22.2105 12.99 22.1608 13.3875 21.8842 13.5825L20.2558 14.7328L20.8689 16.7419C20.9683 17.07 20.762 17.4085 20.4283 17.4741L18.4755 17.8632L18.2195 19.9472C18.1755 20.3044 17.8183 20.535 17.477 20.43L15.573 19.9978L14.4911 21.7969C14.3158 22.0894 13.9239 22.1672 13.6511 21.9628L12.0517 20.7694L10.3314 21.9731C10.0492 22.17 9.66577 22.0781 9.49794 21.781L8.52481 20.0428L6.46043 20.4441C6.10981 20.5106 5.7873 20.2481 5.77511 19.8947L5.59698 17.9447L3.55137 17.4722C3.21669 17.3953 3.02543 17.0475 3.13324 16.7241L3.77449 14.8359L2.0973 13.5712C1.80856 13.3528 1.78981 12.9281 2.05418 12.6853L3.37605 11.2556L2.35792 9.41814C2.19105 9.11814 2.32229 8.7422 2.63637 8.6072L4.46543 7.82159L4.28356 5.72814C4.25262 5.3672 4.56105 5.06814 4.9173 5.10282L6.85981 5.12907L7.5442 3.14252C7.66045 2.80503 8.04858 2.65503 8.36169 2.81907L10.1429 3.64126L11.5755 2.10658C11.8183 1.84597 12.2326 1.86658 12.452 2.14314H12.4548ZM7.27133 12.2193C6.50539 11.4534 7.66978 10.288 8.43665 11.054L11.0166 13.634L15.5344 8.62591C16.2572 7.82246 17.4797 8.9231 16.7569 9.72652L11.685 15.3478C11.3775 15.7256 10.8094 15.7565 10.4634 15.4106L7.27025 12.2184L7.27133 12.2193Z" fill="#5ECE7B"/>
</svg>
