<svg width="228" height="54" viewBox="0 0 228 54" fill="none" xmlns="http://www.w3.org/2000/svg">
<path opacity="0.5" d="M0.5 19.5178V46.5V53.5H92C94.7614 53.5 97 51.2614 97 48.5V41.8126C97 41.2792 96.8676 40.7542 96.6148 40.2845L95.7543 38.6866C94.8353 36.9798 92.3562 37.0737 91.5688 38.8451C91.523 38.9482 91.4697 39.0479 91.4095 39.1433L88.3286 44.0214C86.937 46.2247 83.7959 46.4172 82.1457 44.4003C81.4205 43.514 80.3359 43 79.1908 43H78.3313C76.9757 43 75.8086 42.0432 75.5428 40.714L74.0489 33.2445C73.7335 31.6673 71.466 31.7038 71.2016 33.2904L71.1371 33.6776C71.058 34.1522 70.6474 34.5 70.1663 34.5C69.7639 34.5 69.402 34.745 69.2525 35.1186L68.2889 37.5278C67.3009 39.9977 64.4977 41.1991 62.0278 40.2111L59.734 39.2936C59.2497 39.0999 58.8098 38.8098 58.441 38.441L56.4304 36.4304C55.9285 35.9285 55.1056 35.9601 54.6437 36.4991C53.9074 37.358 52.5 36.8373 52.5 35.7061V29.9241C52.5 29.0344 52.0554 28.2036 51.3151 27.7101L50.1796 26.9531C49.7845 26.6896 49.2583 26.7417 48.9224 27.0776C48.4579 27.5421 47.6787 27.4378 47.3528 26.8674L46.0617 24.6079C46.0206 24.5361 45.9858 24.4609 45.9575 24.3832C45.4418 22.9649 43.3742 23.1722 43.1503 24.6647L41.7408 34.0616C41.4749 35.834 39.1777 36.3678 38.1575 34.8942C37.3624 33.7457 35.6596 33.7606 34.8847 34.9229L33.7079 36.6882C32.86 37.96 30.9054 37.6215 30.5346 36.1385C30.5116 36.0463 30.496 35.9524 30.4881 35.8577L28.5108 12.13C28.5036 12.0437 28.4853 11.9587 28.4561 11.8771C28.0655 10.7834 26.4375 11.1255 26.5203 12.284L26.7596 15.6338C26.8219 16.5061 25.6749 16.8798 25.2114 16.1382C24.8828 15.6125 24.1172 15.6125 23.7886 16.1382L23.7136 16.2582C23.2199 17.0482 22 16.6983 22 15.7667V1.75C22 0.783502 21.2165 0 20.25 0C19.2835 0 18.5 0.783502 18.5 1.75V9.65033C18.5 10.4264 17.4712 10.6996 17.0862 10.0258C16.8123 9.54656 16.1341 9.51225 15.8133 9.96139L15.6663 10.1671C15.1468 10.8944 14 10.5269 14 9.63314V7.07086C14 5.41425 11.8876 4.71592 10.8706 6.02357C10.6316 6.33075 10.5 6.71128 10.5 7.10044V30.7532C10.5 31.5515 10.1829 32.3171 9.61839 32.8816C8.11946 34.3805 5.58202 33.9018 4.73236 31.9597L3.36754 28.8401C3.12514 28.286 3 27.6878 3 27.083V19.5178C3 18.4041 1.65357 17.8464 0.866116 18.6339C0.631696 18.8683 0.5 19.1862 0.5 19.5178Z" fill="#43464E"/>
<path d="M98.9431 38.8018L97.059 37.5479C94.696 35.9753 91.4994 36.6829 90.0208 39.1058L85.7319 46.1339C85.2533 46.9183 85 47.8195 85 48.7385V49C85 51.7614 87.2386 54 90 54H225.514C225.172 54 224.831 53.9649 224.496 53.8953L208.399 50.5484C206.863 50.229 205.761 48.8751 205.761 47.3059V23.6806C205.761 22.6095 204.217 22.4512 204 23.5L203.245 33.9375C203.21 34.425 202.507 34.4594 202.425 33.9776C202.346 33.5159 201.681 33.5203 201.608 33.9829L201.5 34.6667L200.882 45.2903C200.728 47.9345 198.539 50 195.89 50H183.984C181.514 50 179.414 48.1961 179.041 45.7541L178.026 39.0988C177.871 38.0834 176.998 37.3333 175.971 37.3333H175.225C174.489 37.3333 173.892 37.9303 173.892 38.6667C173.892 39.403 173.295 40 172.559 40H172.083C171.303 40 170.671 39.3679 170.671 38.5882V37.744C170.671 36.7058 169.371 36.2379 168.71 37.0378C168.169 37.6913 167.125 37.5199 166.821 36.7279L164.566 30.8403C164.522 30.7248 164.466 30.6143 164.399 30.5103C163.465 29.0572 161.22 29.6236 161.086 31.3459L159.808 47.8781C159.785 48.1679 159.389 48.234 159.274 47.9671C159.175 47.737 158.846 47.7452 158.758 47.9799L158.322 49.1404C158.224 49.4031 157.845 49.3815 157.777 49.1094L157.743 48.9713C157.68 48.7185 157.32 48.7185 157.257 48.9713C157.193 49.2276 156.827 49.2228 156.77 48.9649L156.549 47.9684C156.431 47.4412 155.673 47.4615 155.584 47.9942L155.141 50.652C155.06 51.1413 154.636 51.5 154.14 51.5H140.386C139.884 51.5 139.465 51.1175 139.42 50.6179L139.149 47.6384C139.115 47.2671 138.598 47.2071 138.48 47.5607C138.364 47.9083 137.857 47.8582 137.812 47.4946L137.61 45.8816C137.572 45.5777 137.177 45.4844 137.007 45.7392C136.836 45.9966 136.436 45.8984 136.403 45.5908L135.72 39.154C135.579 37.8251 133.796 37.4938 133.186 38.6832C132.689 39.6549 131.302 39.6597 130.798 38.6915L130.214 37.5709C130.132 37.4132 130.071 37.2453 130.033 37.0715L129.562 34.898C129.213 33.2873 127.026 33.0236 126.304 34.5051C126.252 34.6125 126.21 34.7251 126.181 34.8409L124.5 41.5C123.9 43.3 122.235 44.5304 120.339 44.576L120.214 44.579C118.068 44.6305 116.162 43.2156 115.591 41.1468L112.753 30.8642C112.716 30.7328 112.669 30.6046 112.611 30.4813C111.758 28.6701 109.19 28.645 108.302 30.4391L108.274 30.4952C108.218 30.6093 108.17 30.7277 108.132 30.8493L106.487 36.1275C105.494 39.3122 101.72 40.65 98.9431 38.8018Z" fill="#F1F2F3"/>
</svg>
