<svg width="75" height="30" viewBox="0 0 75 10" fill="none" xmlns="http://www.w3.org/2000/svg">
<g clip-path="url(#clip0)">
<path d="M0 9.99999H9.31949L9.3989 7.31524H4.18118V6.29303H9.19553V3.59388H4.18118V2.69914H9.44846V0H0V9.99999Z" fill="#2B2A29"/>
<path d="M31.108 1.95962V0H22.3936V1.94478H28.0031L22.106 8.18516V9.99999H31.5792V8.05521H25.3248L31.108 1.95962Z" fill="#2B2A29"/>
<path d="M39.6933 0C38.7112 1.53355 37.4266 3.46146 36.9009 4.42961C36.3751 3.46146 35.0905 1.53355 34.1135 0H31.6187L35.7551 6.08172C35.7749 6.10954 35.7899 6.13578 35.7998 6.1606C35.8097 6.17897 35.8196 6.19689 35.8247 6.21422C35.8346 6.24204 35.8395 6.27421 35.8444 6.30743C35.8444 6.33225 35.8494 6.35257 35.8494 6.38586V10.0001H37.9573V6.38586C37.9573 6.35212 37.9622 6.33225 37.9622 6.30743C37.9672 6.27421 37.9672 6.24204 37.9771 6.21422C37.9821 6.19689 37.992 6.17897 38.002 6.16113C38.0168 6.13578 38.0317 6.10909 38.0466 6.08172L42.1831 0H39.6933V0Z" fill="#2B2A29"/>
<path d="M55.7282 0H55.6538C55.2669 1.33716 54.6767 3.32506 54.1857 5.08387C53.7939 6.41705 53.4615 7.62029 53.3177 8.32111C52.9855 6.70125 51.5967 2.34251 50.8576 0H49.2309C48.4919 2.34251 47.0981 6.70073 46.7708 8.32111C46.627 7.62074 46.2946 6.41848 45.9028 5.08679C45.4118 3.32753 44.8166 1.33769 44.4298 0H42.6938L45.7244 9.99999H47.7281C48.3629 7.93771 49.6228 3.80617 50.0443 2.16044C50.461 3.80617 51.7257 7.93763 52.3606 9.99999H54.3643L57.3899 0H55.7283L55.7282 0Z" fill="#2B2A29"/>
<path d="M72.8103 0H72.7309C71.5505 1.69035 69.7699 4.12711 69.2393 5.01683C68.7036 4.12704 66.923 1.69027 65.7426 0H64.3984L68.5895 5.91607C68.6341 5.98851 68.6589 6.0326 68.6589 6.1477V9.99999H69.8195V6.1477C69.8195 6.03267 69.8443 5.98851 69.884 5.91607L74.0799 0H72.8102L72.8103 0Z" fill="#2B2A29"/>
<path d="M59.364 5.77962C59.4335 5.61645 59.498 5.46363 59.5625 5.30646L61.2587 1.51018L63.1633 5.77962H59.364V5.77962ZM62.1812 0.0286728L62.1664 -0.00012207H60.3511L55.8872 9.99987H57.4694L58.8036 7.01353H63.7187L64.7504 9.33129L65.048 9.99987H66.6302L62.1812 0.0285978V0.0286728Z" fill="#2B2A29"/>
<path d="M14.4729 5.82781C14.9044 4.55709 15.2814 3.35438 15.5144 2.5092L15.6484 2.08118H15.6682L15.8022 2.5092C16.0402 3.35438 16.4171 4.55709 16.8487 5.82781H14.4729ZM17.7017 0H13.6198V0.00892341L9.89502 9.99999H13.1536L13.7687 8.15494H17.553L18.1631 9.99999H21.4267L17.7019 0.00892341V0L17.7017 0Z" fill="#2B2A29"/>
</g>
<defs>
<clipPath id="clip0">
<rect width="74.0798" height="10" fill="white"/>
</clipPath>
</defs>
</svg>
