<svg width="40" height="39" viewBox="0 0 40 39" fill="none" xmlns="http://www.w3.org/2000/svg">
<path fill-rule="evenodd" clip-rule="evenodd" d="M23.6619 15.2176C23.196 15.5572 22.8646 16.0117 22.6792 16.5153C21.7293 15.8575 20.4299 15.8361 19.4406 16.5531C19.0288 16.8533 18.722 17.2454 18.5284 17.6802L15.0175 12.8468C14.1086 11.595 12.3564 11.3178 11.1062 12.2267C9.85442 13.1356 9.57717 14.8861 10.4861 16.1379L18.5169 27.1906L15.9345 26.0405C14.522 25.4122 12.8666 26.0471 12.2382 27.4597C11.6082 28.8723 12.2448 30.5277 13.6574 31.156C13.9822 31.302 15.234 31.8582 15.4949 31.9747C17.4915 32.8688 19.6867 35.2477 21.6882 36.1419C24.4821 37.3888 28.6035 38.7095 28.8366 38.7866C29.2041 38.908 29.5995 38.7078 29.7192 38.3403C29.8406 37.9745 29.6405 37.5774 29.2746 37.4577C29.0449 37.3822 24.561 35.8991 22.2543 34.8605C20.6859 34.1567 18.2397 31.6548 16.0644 30.6966C15.8035 30.5818 14.5517 30.0223 14.2269 29.878C13.5198 29.563 13.2031 28.7361 13.5165 28.029C13.8315 27.3235 14.6584 27.0052 15.3654 27.3202L20.1513 29.4514C20.6517 29.7221 21.5754 29.0183 21.0832 28.3391L11.6202 15.314C11.1658 14.6889 11.3036 13.8129 11.9287 13.3584C12.5554 12.904 13.4298 13.0434 13.8843 13.6685L20.8798 23.2957C21.1062 23.6091 21.5442 23.678 21.8576 23.4516C22.1693 23.2236 22.2399 22.7855 22.0118 22.4738L19.9545 19.6421C19.5 19.0154 19.6395 18.1409 20.2646 17.6865C20.8896 17.232 21.7657 17.3698 22.2202 17.9966L24.2775 20.8283C24.5039 21.14 24.9419 21.2089 25.2553 20.9825C25.567 20.7544 25.6376 20.3181 25.4095 20.0047L24.1758 18.305C23.7213 17.6799 23.8591 16.8038 24.4858 16.3494C25.1109 15.895 25.987 16.0344 26.4414 16.6595L28.4971 19.4912C28.7252 19.8046 29.1632 19.8735 29.4749 19.6471C29.7883 19.419 29.8572 18.981 29.6308 18.6693L28.3954 16.9696C27.941 16.3445 28.0804 15.4684 28.7055 15.0139C29.3322 14.5595 30.2066 14.6989 30.6611 15.324L33.542 19.2878C36.236 22.9972 36.5395 28.1767 38.682 31.128C38.91 31.4397 39.3481 31.5086 39.6598 31.2822C39.9732 31.0542 40.0421 30.6178 39.8157 30.3044C37.9683 27.7614 37.3793 22.1883 34.674 18.4655L31.7947 14.5001C30.8858 13.2499 29.1336 12.9727 27.8835 13.8815C27.4159 14.2195 27.0861 14.6756 26.9007 15.1792C25.9508 14.5214 24.6498 14.5 23.6622 15.217L23.6619 15.2176Z" fill="#E0E0E1"/>
<path fill-rule="evenodd" clip-rule="evenodd" d="M6.20528 11.8051C6.47763 11.5311 6.92058 11.5311 7.19459 11.8051C7.46857 12.0791 7.46857 12.522 7.19459 12.7944L4.39403 15.595C4.12169 15.869 3.67873 15.869 3.40472 15.595L0.604161 12.7944C0.331816 12.5221 0.331816 12.0791 0.604161 11.8051C0.878144 11.5311 1.3211 11.5311 1.59511 11.8051L3.19963 13.4096V1.09985C3.19963 0.712662 3.51299 0.399292 3.90019 0.399292C4.28574 0.399292 4.59912 0.71265 4.59912 1.09985V13.4143L6.20528 11.8051Z" fill="#E0E0E1"/>
</svg>
