<svg width="16" height="16" viewBox="0 0 16 16" fill="none" xmlns="http://www.w3.org/2000/svg">
<path d="M12.2784 6.00666H9.70881V3.78629C9.75196 3.35994 9.63001 2.93329 9.36979 2.60017C9.10957 2.26705 8.73239 2.05476 8.32122 2.00999C8.21311 1.99667 8.10385 1.99667 7.99574 2.00999H7.32336C7.18021 2.01406 7.0424 2.06728 6.93157 2.16131C6.82073 2.25535 6.74313 2.38487 6.71094 2.52956V2.58285L6.28267 5.39828L4.76661 7.78296H2V14H10.1371C13.3234 14 13.9915 12.0683 13.9915 10.4474V7.78296C14.0346 7.35661 13.9127 6.92995 13.6525 6.59684C13.3922 6.26372 13.0151 6.05143 12.6039 6.00666C12.4958 5.99334 12.3865 5.99334 12.2784 6.00666ZM4.5696 13.1119H2.85653V8.67111H4.5696V10.8915V13.1119ZM13.1349 10.4474C13.1349 12.2637 12.1842 13.1119 10.1371 13.1119H5.42614V8.36026L7.13921 5.72689L7.45184 3.34222L7.5118 2.89814H7.99574C8.61245 2.89814 8.85227 3.14682 8.85227 3.78629V6.89481H12.2784C12.8951 6.89481 13.1349 7.14349 13.1349 7.78296V10.4474Z" fill="#1D1F22"/>
</svg>
