<svg width="16" height="16" viewBox="0 0 16 16" fill="none" xmlns="http://www.w3.org/2000/svg">
<path d="M12.2784 9.99334H9.70881V12.2137C9.75196 12.6401 9.63001 13.0667 9.36979 13.3998C9.10957 13.7329 8.73239 13.9452 8.32122 13.99C8.21311 14.0033 8.10385 14.0033 7.99574 13.99H7.32336C7.18021 13.9859 7.0424 13.9327 6.93157 13.8387C6.82073 13.7447 6.74313 13.6151 6.71094 13.4704V13.4172L6.28267 10.6017L4.76661 8.21704H2V2H10.1371C13.3234 2 13.9915 3.93172 13.9915 5.5526V8.21704C14.0346 8.64339 13.9127 9.07005 13.6525 9.40316C13.3922 9.73628 13.0151 9.94857 12.6039 9.99334C12.4958 10.0067 12.3865 10.0067 12.2784 9.99334ZM4.5696 2.88815H2.85653V7.32889H4.5696V5.10852V2.88815ZM13.1349 5.5526C13.1349 3.73633 12.1842 2.88815 10.1371 2.88815H5.42614V7.63974L7.13921 10.2731L7.45184 12.6578L7.5118 13.1019H7.99574C8.61245 13.1019 8.85227 12.8532 8.85227 12.2137V9.10519H12.2784C12.8951 9.10519 13.1349 8.85651 13.1349 8.21704V5.5526Z" fill="#1D1F22"/>
</svg>
