<svg width="22" height="18" viewBox="0 0 22 18" fill="none" xmlns="http://www.w3.org/2000/svg">
<path d="M10.9995 18C10.7978 18 10.5961 17.9387 10.4282 17.816L9.94148 17.4602C5.47105 14.1995 2.77306 12.2307 1.20252 9.60403C-0.30323 7.0941 -0.122354 5.11159 0.292805 3.8912C0.799052 2.40805 1.93781 1.21445 3.50213 0.529955C4.30643 0.179101 5.18099 0 6.0985 0C8.03893 0 9.8323 0.778994 10.9997 2.06338C12.1671 0.778994 13.9592 0 15.9009 0C16.8184 0 17.6917 0.177879 18.496 0.52873C20.0603 1.21326 21.2004 2.40566 21.7066 3.88998C22.1231 5.10936 22.3027 7.09169 20.7969 9.60281C19.2248 12.2293 16.5231 14.2008 12.0473 17.4662L11.5723 17.8159C11.4031 17.9385 11.2012 18 10.9995 18ZM6.0983 1.76157C5.45279 1.76157 4.84373 1.88424 4.28671 2.12715C3.20132 2.60189 2.41394 3.41892 2.07038 4.42974C1.637 5.69943 1.89989 7.18993 2.8278 8.73815C4.20471 11.0407 6.6229 12.8135 10.998 16.0068C15.3735 12.8148 17.7916 11.0398 19.1683 8.73941C20.0975 7.19003 20.3591 5.69953 19.927 4.42974C19.5821 3.42014 18.7948 2.60189 17.7094 2.12715C17.1537 1.88425 16.5446 1.76157 15.8991 1.76157C14.1461 1.76157 12.5168 2.67918 11.8451 4.04453C11.6929 4.35613 11.361 4.55486 10.9979 4.55486C10.6335 4.55486 10.3042 4.35613 10.1506 4.04453C9.48041 2.67915 7.85132 1.76157 6.0983 1.76157Z" fill="#1D1F22"/>
</svg>
