<svg width="21" height="20" fill="none" xmlns="http://www.w3.org/2000/svg"><path d="M17 9.977a7 7 0 00-14 0v-.018.078-.016a7 7 0 0014 .002v.018-.081.018zm-8.907 3.206A3.184 3.184 0 014.912 10a3.184 3.184 0 013.181-3.182c.86 0 1.58.315 2.13.83l-.905.879a1.744 1.744 0 00-1.225-.471c-1.053 0-1.912.875-1.912 1.948 0 1.072.86 1.947 1.912 1.947 1.219 0 1.668-.843 1.75-1.343H8.092V9.422h2.976c.046.2.08.387.08.651 0 1.817-1.218 3.11-3.055 3.11zm7.316-2.865h-1.273v1.273h-.954v-1.273H11.91v-.954h1.273V8.091h.954v1.273h1.273v.954z" fill="#898A8D"/></svg>