<svg width="21" height="20" fill="none" xmlns="http://www.w3.org/2000/svg"><path d="M17 10c0 1.27-.313 2.441-.939 3.514a6.969 6.969 0 01-2.547 2.547A6.847 6.847 0 0110 17a6.897 6.897 0 01-1.987-.292c.359-.565.596-1.063.711-1.494.055-.207.219-.848.492-1.924.122.237.343.442.666.616.322.173.668.26 1.039.26.735 0 1.391-.209 1.968-.625.578-.416 1.024-.989 1.34-1.718.316-.73.474-1.55.474-2.461a3.75 3.75 0 00-.542-1.95c-.362-.608-.886-1.103-1.572-1.486-.687-.383-1.462-.574-2.325-.574-.638 0-1.233.088-1.786.264a4.663 4.663 0 00-1.408.702 4.8 4.8 0 00-.994 1.007c-.276.38-.48.773-.61 1.18a3.966 3.966 0 00-.196 1.222c0 .631.121 1.188.364 1.668s.599.817 1.067 1.011c.182.073.297.012.346-.182l.073-.283c.036-.145.06-.237.073-.273a.416.416 0 00-.1-.392c-.31-.37-.465-.83-.465-1.376 0-.918.317-1.706.952-2.365.635-.66 1.466-.99 2.493-.99.918 0 1.633.25 2.146.748.514.498.77 1.145.77 1.941 0 1.033-.208 1.911-.624 2.634-.416.724-.95 1.085-1.6 1.085-.37 0-.668-.132-.893-.396-.224-.265-.294-.582-.21-.953.05-.212.13-.497.242-.852.113-.356.204-.668.274-.939.07-.27.105-.5.105-.688 0-.304-.082-.556-.246-.757-.165-.2-.399-.3-.702-.3-.377 0-.696.173-.957.52-.262.346-.392.777-.392 1.294 0 .443.076.814.228 1.111l-.903 3.81c-.103.426-.143.963-.118 1.614a6.978 6.978 0 01-3.035-2.562A6.786 6.786 0 013 10c0-1.27.313-2.441.939-3.514A6.969 6.969 0 016.486 3.94 6.848 6.848 0 0110 3c1.27 0 2.441.313 3.514.939a6.969 6.969 0 012.547 2.547A6.847 6.847 0 0117 10z" fill="#898A8D"/></svg>