<svg width="21" height="20" fill="none" xmlns="http://www.w3.org/2000/svg"><path d="M17.4 5.404c-.096.203-.275.46-.537.77a3.99 3.99 0 01-.972.82c.011.085.019.165.024.24.042 1.153-.234 2.35-.618 3.347-.743 1.854-1.881 3.346-3.508 4.359-1.695.973-3.67 1.18-5.49 1.003C5.091 15.805 3.9 15.41 3 14.667c1.647.197 3.184-.363 4.399-1.268-1.35.034-2.33-.942-2.794-2.071.21.054.427.048.626.032a5.8 5.8 0 00.707-.096c-.86-.278-1.614-.789-2.007-1.558a3.357 3.357 0 01-.337-1.477c.403.213.888.42 1.332.402-.67-.569-1.208-1.295-1.308-2.127-.063-.695.11-1.329.361-1.919 1.004 1.103 2.13 2.01 3.428 2.569.888.363 1.773.558 2.689.562-.106-.818-.024-1.61.361-2.28.453-.722 1.113-1.14 1.854-1.349a2.737 2.737 0 012.745.851c.703-.076 1.376-.387 1.91-.706-.227.689-.67 1.374-1.316 1.702a8.324 8.324 0 001.75-.53z" fill="#898A8D"/></svg>