<svg width="21" height="20" fill="none" xmlns="http://www.w3.org/2000/svg"><mask id="a" maskUnits="userSpaceOnUse" x="6" y="3" width="9" height="14"><path d="M13.968 3.003L12.048 3C9.894 3 8.5 4.352 8.5 6.445v1.589H6.57a.294.294 0 00-.301.285v2.302c0 .158.135.286.302.286H8.5v5.808c0 .157.134.285.3.285h2.518a.294.294 0 00.302-.285v-5.808h2.255a.294.294 0 00.302-.286l.001-2.302a.278.278 0 00-.088-.201.311.311 0 00-.213-.084H11.62V6.688c0-.648.163-.976 1.055-.976h1.292a.294.294 0 00.302-.286V3.288a.294.294 0 00-.301-.285z" fill="#172ACB"/></mask><g mask="url(#a)"><path fill="#1D1F22" d="M6.269 3h8v14h-8z"/></g></svg>