<svg width="21" height="20" viewBox="0 0 21 20" fill="none" xmlns="http://www.w3.org/2000/svg">
<mask id="mask0" mask-type="alpha" maskUnits="userSpaceOnUse" x="6" y="3" width="9" height="14">
<path d="M13.9676 3.00273L12.0485 3C9.89305 3 8.49941 4.35244 8.49941 6.44528V8.03402H6.57054C6.40406 8.03402 6.2688 8.16198 6.2688 8.31949V10.6212C6.2688 10.7787 6.40406 10.9067 6.57054 10.9067H8.5V16.7145C8.5 16.872 8.63526 17 8.80174 17H11.3191C11.4856 17 11.6208 16.872 11.6208 16.7145L11.6203 10.9067H13.8763C14.0428 10.9067 14.1781 10.7788 14.1781 10.6212L14.1792 8.31949C14.1792 8.24402 14.1474 8.17129 14.0908 8.11769C14.0341 8.0641 13.9572 8.03402 13.8775 8.03402H11.6202V6.6876C11.6202 6.0401 11.7833 5.71196 12.6746 5.71196L13.9671 5.71142C14.1335 5.71142 14.2688 5.58345 14.2688 5.42594V3.28813C14.2688 3.13117 14.1341 3.0032 13.9676 3.00265L13.9676 3.00273Z" fill="#172ACB"/>
</mask>
<g mask="url(#mask0)">
<rect x="6.2688" y="3" width="8" height="14" fill="#1D1F22"/>
</g>
</svg>
