<svg width="32" height="32" fill="none" xmlns="http://www.w3.org/2000/svg"><path d="M16.014 6c3.413 0 6.19 2.645 6.19 5.895 0 2.204-1.273 4.132-3.124 5.125 3.76 1.157 6.537 4.297 6.884 8.209.116.991-1.851 1.047-1.909.11-.405-3.912-3.934-6.887-8.041-6.887-4.166 0-7.637 2.975-8.042 6.887-.116.937-2.083.881-1.967-.11.405-3.857 3.182-7.052 6.884-8.21-1.851-.99-3.124-2.92-3.124-5.124C9.765 8.645 12.6 6 16.013 6zm0 1.873c-2.372 0-4.282 1.818-4.282 4.022 0 2.259 1.91 4.078 4.282 4.078 2.314 0 4.222-1.818 4.222-4.078 0-2.204-1.909-4.022-4.223-4.022z" fill="#43464E"/></svg>