<svg width="24" height="24" fill="none" xmlns="http://www.w3.org/2000/svg"><path d="M12.01 4.5c2.56 0 4.643 1.983 4.643 4.422 0 1.652-.955 3.098-2.343 3.843 2.82.867 4.903 3.223 5.163 6.157.087.743-1.389.785-1.432.082-.304-2.934-2.95-5.165-6.03-5.165-3.125 0-5.728 2.231-6.032 5.165-.087.703-1.562.661-1.475-.082.304-2.893 2.386-5.29 5.163-6.157-1.389-.744-2.343-2.19-2.343-3.843C7.324 6.483 9.45 4.5 12.01 4.5zm0 1.405c-1.778 0-3.21 1.364-3.21 3.016 0 1.694 1.43 3.059 3.21 3.059 1.736 0 3.167-1.364 3.167-3.059 0-1.653-1.431-3.016-3.167-3.016z" fill="#43464E"/></svg>