<svg width="32" height="32" fill="none" xmlns="http://www.w3.org/2000/svg"><path d="M25.713 10.3a2.25 2.25 0 00-1.753-.864H9.726l-.443-1.73A2.247 2.247 0 007.109 6H4.725A.728.728 0 004 6.725c0 .397.327.725.725.725h2.384c.35 0 .654.234.748.584l2.85 11.36a2.247 2.247 0 002.175 1.707h9.325c1.028 0 1.94-.702 2.174-1.707l1.753-7.2a2.144 2.144 0 00-.42-1.894zm-1.004 1.566l-1.753 7.2a.772.772 0 01-.748.584h-9.326a.772.772 0 01-.748-.585l-2.033-8.157h13.86c.234 0 .468.117.609.305.14.186.209.42.14.653h-.001zM13.373 22.033a2.444 2.444 0 00-2.43 2.43 2.444 2.444 0 002.43 2.431 2.442 2.442 0 002.43-2.43 2.444 2.444 0 00-2.43-2.43zm0 3.39a.948.948 0 01-.958-.96c0-.537.42-.958.958-.958s.959.421.959.959a.98.98 0 01-.959.959zm8.04-3.39a2.444 2.444 0 00-2.43 2.43 2.444 2.444 0 002.43 2.431 2.444 2.444 0 002.43-2.43c-.022-1.331-1.098-2.43-2.43-2.43zm0 3.39a.948.948 0 01-.958-.96c0-.537.42-.958.958-.958s.959.421.959.959a.979.979 0 01-.959.959z" fill="#43464E"/></svg>