<svg width="32" height="32" fill="none" xmlns="http://www.w3.org/2000/svg"><path d="M2.5 5.45a1.05 1.05 0 100 2.1h4c.155 0 .42.086.754.372.322.276.614.661.807 1.048.073.146.219.607.421 1.405.19.751.405 1.689.632 2.696l.141.625c.409 1.818.849 3.774 1.232 5.081.114.445.369 1.076.802 1.624.445.564 1.176 1.149 2.211 1.149H21a4.96 4.96 0 002.135-.512c.788-.397 1.59-1.11 1.884-2.283.116-.467.27-1.051.437-1.685.384-1.458.837-3.181 1.074-4.364.4-1.998-1.44-3.756-3.53-3.756h-8.5a1.05 1.05 0 100 2.1H23c1.11 0 1.547.862 1.47 1.244-.224 1.12-.644 2.717-1.02 4.146a155.81 155.81 0 00-.469 1.805c-.106.426-.387.714-.79.917A2.862 2.862 0 0121 19.45h-7.5c-.165 0-.35-.081-.564-.35a2.465 2.465 0 01-.429-.896c-.364-1.237-.79-3.13-1.205-4.978l-.139-.617a113.438 113.438 0 00-.645-2.75c-.187-.736-.384-1.438-.579-1.829a5.568 5.568 0 00-1.318-1.702C8.08 5.864 7.345 5.45 6.5 5.45h-4zM14 23c-1.096 0-2 .904-2 2s.904 2 2 2 2-.903 2-2c0-1.096-.904-2-2-2zm8 0c-1.096 0-2 .904-2 2s.904 2 2 2 2-.903 2-2c0-1.096-.904-2-2-2z" fill="#43464E"/></svg>