<svg width="289" height="289" fill="none" xmlns="http://www.w3.org/2000/svg"><mask id="a" maskUnits="userSpaceOnUse" x="0" y="0" width="289" height="289"><circle cx="144.5" cy="144.5" r="144.5" fill="#F1F2F3"/></mask><g mask="url(#a)"><path fill="#F1F2F3" d="M0 0h289v289H0z"/><path d="M147 53.374l2.209 4.758.235.504.552.067 5.208.631-3.842 3.572-.408.379.107.546 1.009 5.147-4.584-2.55-.486-.27-.486.27-4.584 2.55 1.009-5.147.107-.546-.408-.379-3.842-3.572 5.208-.63.552-.068.235-.504L147 53.374z" stroke="#D2D2D2" stroke-width="2"/><circle cx="168" cy="110" r="5" stroke="#D2D2D2" stroke-width="2"/><circle cx="122" cy="118" r="1" stroke="#D2D2D2" stroke-width="2"/><circle cx="171" cy="76" r="1" stroke="#D2D2D2" stroke-width="2"/><circle cx="93" cy="79" r="1" stroke="#D2D2D2" stroke-width="2"/><circle cx="121" cy="84" r="5" stroke="#D2D2D2" stroke-width="2"/><path d="M187.261 88l-6.431 8m-81.038 6l8.823 14.34M126.359 96l2.403 5.121m64.799 11.997L182 118.442M147.682 82l-.376 8.988" stroke="#D2D2D2" stroke-width="2" stroke-linecap="round"/><path d="M132.009 158s-.774-21 11.991-21 11.991 21 11.991 21" stroke="#fff" stroke-width="4" stroke-linecap="round"/><path fill="#BABABA" d="M70 147h148v148H70z"/><path d="M70 147l-20 20v128h20V147zm148 0l20 20v128h-20V147z" fill="#9C9C9C"/><path fill="#D2D2D2" d="M50 167h188v188H50z"/><circle cx="159.5" cy="181.5" r="4.5" fill="#9C9C9C"/><circle cx="128.5" cy="181.5" r="4.5" fill="#9C9C9C"/><path d="M128.5 181.5s-1-28.5 15.5-28.5 15.5 28.5 15.5 28.5" stroke="#fff" stroke-width="4" stroke-linecap="round"/></g></svg>