<svg width="19" height="18" fill="none" xmlns="http://www.w3.org/2000/svg"><path d="M18.27 3.631a1.836 1.836 0 00-1.431-.705H5.22l-.362-1.412A1.834 1.834 0 003.083.121H1.138a.595.595 0 00-.592.592c0 .324.267.592.592.592h1.945a.63.63 0 01.61.477l2.328 9.272c.21.82.935 1.393 1.775 1.393h7.612c.839 0 1.583-.572 1.774-1.393l1.431-5.876a1.75 1.75 0 00-.343-1.547zm-.82 1.279l-1.431 5.876a.63.63 0 01-.61.477H7.796a.63.63 0 01-.61-.477l-1.66-6.658H16.84c.19 0 .381.095.496.248a.6.6 0 01.114.534zm-9.253 8.299a1.995 1.995 0 00-1.984 1.984c0 1.087.896 1.984 1.984 1.984a1.994 1.994 0 001.984-1.984 1.995 1.995 0 00-1.984-1.984zm0 2.766a.774.774 0 01-.783-.782c0-.44.344-.783.783-.783.439 0 .782.344.782.783a.8.8 0 01-.782.782zm6.563-2.766a1.994 1.994 0 00-1.984 1.984c0 1.087.897 1.983 1.984 1.983a1.995 1.995 0 001.984-1.983c-.019-1.087-.897-1.984-1.984-1.984zm0 2.766a.774.774 0 01-.782-.782c0-.44.343-.783.782-.783.44 0 .783.344.783.783 0 .42-.363.782-.783.782z" fill="#fff"/></svg>