<svg width="18" height="11" fill="none" xmlns="http://www.w3.org/2000/svg"><path d="M8.979 10.175c3.147 0 6.125-1.693 8.17-4.645a.337.337 0 000-.384C15.103 2.193 12.125.5 8.978.5 5.83.5 2.853 2.194.81 5.146a.337.337 0 000 .384c2.043 2.951 5.021 4.645 8.169 4.645zm0-9c2.854 0 5.568 1.514 7.478 4.163C14.547 7.986 11.832 9.5 8.98 9.5c-2.856 0-5.57-1.513-7.48-4.162 1.909-2.65 4.623-4.163 7.478-4.163z" fill="#72757E"/><path d="M8.978 8.962c2 0 3.626-1.626 3.626-3.626a3.629 3.629 0 00-3.626-3.624 3.63 3.63 0 00-3.625 3.625 3.629 3.629 0 003.625 3.625zm0-6.575a2.954 2.954 0 012.95 2.95 2.954 2.954 0 01-2.95 2.95 2.953 2.953 0 01-2.95-2.95 2.954 2.954 0 012.95-2.95z" fill="#72757E"/><path d="M8.979 7.455a2.12 2.12 0 002.118-2.119 2.12 2.12 0 00-3.08-1.885.337.337 0 00-.174.387l.22.829-.723-.155a.338.338 0 00-.395.236A2.12 2.12 0 008.98 7.454z" fill="#72757E"/></svg>