<svg width="24" height="24" fill="none" xmlns="http://www.w3.org/2000/svg"><path fill-rule="evenodd" clip-rule="evenodd" d="M12.258 7.243C13.152 6.447 14.365 6 15.63 6c1.265 0 2.478.447 3.373 1.243.894.795 1.397 1.874 1.397 2.999s-.503 2.204-1.397 3l-6.485 5.767a.8.8 0 01-1.037 0L4.996 13.24c-1.862-1.656-1.862-4.342 0-5.998 1.863-1.657 4.882-1.657 6.745 0l.258.23.26-.23zM12 17.625l5.189-4.615.777-.691c.62-.551.968-1.298.968-2.077 0-.779-.348-1.526-.968-2.077-.62-.55-1.459-.86-2.335-.86-.875 0-1.715.31-2.334.86l-.778.692a.8.8 0 01-1.037 0l-.778-.692c-1.29-1.146-3.38-1.146-4.67 0-1.289 1.147-1.289 3.007 0 4.154L12 17.625z" fill="#43464E"/></svg>