<svg width="32" height="32" fill="none" xmlns="http://www.w3.org/2000/svg"><path d="M16 26a.934.934 0 01-.572-.194l-.487-.376c-4.47-3.442-7.168-5.52-8.738-8.292-1.506-2.65-1.325-4.742-.91-6.03.506-1.566 1.645-2.826 3.21-3.549A6.165 6.165 0 0111.097 7c1.94 0 3.734.822 4.902 2.178C17.167 7.822 18.96 7 20.9 7c.918 0 1.792.188 2.596.558 1.564.723 2.704 1.981 3.21 3.548.417 1.287.597 3.38-.91 6.03-1.571 2.773-4.273 4.854-8.749 8.3l-.475.37A.941.941 0 0116 26zM11.098 8.86c-.645 0-1.254.129-1.811.385-1.086.501-1.873 1.364-2.217 2.43-.433 1.341-.17 2.914.758 4.549 1.377 2.43 3.795 4.301 8.17 7.672 4.376-3.37 6.794-5.243 8.17-7.671.93-1.636 1.191-3.209.759-4.55-.345-1.065-1.132-1.929-2.218-2.43a4.288 4.288 0 00-1.81-.386c-1.753 0-3.382.969-4.054 2.41a.933.933 0 01-.847.539.933.933 0 01-.847-.539c-.67-1.441-2.3-2.41-4.053-2.41z" fill="#43464E"/></svg>