<svg width="14" height="13" fill="none" xmlns="http://www.w3.org/2000/svg"><path d="M13.4 5.563h-.96a1.746 1.746 0 00-3.381 0H.442a.442.442 0 000 .884h8.617a1.746 1.746 0 003.38 0h.96a.442.442 0 000-.884zm-2.65 1.308a.866.866 0 110-1.732.866.866 0 010 1.732zm2.65 2.945H8.61a1.746 1.746 0 00-3.38 0H.44a.442.442 0 000 .883h4.79a1.746 1.746 0 003.38 0h4.79a.442.442 0 000-.883zm-6.48 1.31a.866.866 0 11.001-1.731.866.866 0 010 1.731zM.443 2.191h.96a1.746 1.746 0 003.38 0H13.4a.442.442 0 000-.883H4.783a1.746 1.746 0 00-3.381 0h-.96a.442.442 0 000 .883zM3.092.884a.866.866 0 110 1.73.866.866 0 010-1.73z" fill="#43464E"/></svg>