<svg width="24" height="24" fill="none" xmlns="http://www.w3.org/2000/svg"><path fill-rule="evenodd" clip-rule="evenodd" d="M18.6 8.4h-2.727c.206-.354.327-.763.327-1.2 0-1.32-1.08-2.4-2.4-2.4-.716 0-1.36.32-1.8.82a2.394 2.394 0 00-1.8-.82c-1.32 0-2.4 1.08-2.4 2.4 0 .436.12.846.326 1.2H5.4c-.36 0-.6.24-.6.6v2.4c0 .36.24.6.6.6v6.6c0 .36.24.6.6.6h12c.36 0 .6-.24.6-.6V12c.36 0 .6-.24.6-.6V9c0-.36-.24-.6-.6-.6zm-.6 2.4h-5.4V9.6H18v1.2zM13.8 6c.66 0 1.2.54 1.2 1.2 0 .66-.54 1.2-1.2 1.2h-1.2V7.2c0-.66.54-1.2 1.2-1.2zM9 7.2c0-.66.54-1.2 1.2-1.2.66 0 1.2.54 1.2 1.2v1.2h-1.2C9.54 8.4 9 7.86 9 7.2zM6 9.6h5.4v1.2H6V9.6zm.6 2.4h4.8v6H6.6v-6zm10.8 6h-4.8v-6h4.8v6z" fill="#43464E"/></svg>