<svg width="18" height="14" fill="none" xmlns="http://www.w3.org/2000/svg"><path fill-rule="evenodd" clip-rule="evenodd" d="M9.259 1.243C10.153.447 11.366 0 12.63 0c1.265 0 2.478.447 3.372 1.243.895.795 1.397 1.874 1.397 2.999s-.502 2.204-1.397 3l-6.484 5.767a.8.8 0 01-1.038 0L1.997 7.24C.135 5.585.135 2.9 1.997 1.243s4.882-1.657 6.744 0l.259.23.259-.23zm-.26 10.382l5.19-4.615.777-.691c.62-.551.967-1.298.967-2.077 0-.779-.348-1.526-.967-2.076-.62-.552-1.46-.861-2.335-.861-.876 0-1.716.31-2.335.86l-.777.692a.8.8 0 01-1.038 0l-.777-.692c-1.29-1.147-3.38-1.147-4.67 0s-1.29 3.007 0 4.154L9 11.625z" fill="#43464E"/></svg>