<svg width="24" height="24" fill="none" xmlns="http://www.w3.org/2000/svg"><path d="M5.216 10.778c-.06.225-.05.406.016.54l-.016-.54zm0 0c.06-.224.19-.482.387-.757m-.387.757l.387-.757m0 0l1.452-2.03m-1.452 2.03l1.452-2.03m0 0h1.481l-2.113 3.784c-.31-.005-.57-.05-.772-.128-.214-.082-.352-.196-.419-.33L7.055 7.99zm-.376 4.57h10.642v6.119c0 .075-.06.134-.13.134h-2.8v-5.056a.449.449 0 00-.447-.452h-3.69a.449.449 0 00-.446.452v5.056H6.809h0a.133.133 0 01-.13-.135v-6.118zm12.089-1.243l.09.045-.09-.045c-.067.133-.205.248-.419.33a2.356 2.356 0 01-.829.127h-.09l-2.114-3.784h1.628l1.453 2.03h0c.198.276.327.533.387.757.06.225.05.406-.016.54zm.258-1.758l-1.39-1.942V5.32a.913.913 0 00-.907-.92H7.271a.913.913 0 00-.907.92v2.298L4.974 9.56s0 0 0 0c-.522.728-.687 1.416-.499 1.96.183.527.686.881 1.427.998v6.162c0 .507.404.92.907.92H17.19a.913.913 0 00.907-.92l.001-6.162c.74-.117 1.244-.47 1.427-.998.188-.543.023-1.232-.499-1.96 0 0 0 0 0 0zM7.14 5.32c0-.075.06-.134.131-.134h9.458c.07 0 .131.059.131.134v1.885H7.14V5.32zm2.884 2.67l-1.006 3.785H7.315l2.114-3.784h.595zm-.202 3.785l1.007-3.784h.709v3.784H9.822zm2.493-3.784h.709l1.006 3.784h-1.715V7.991zm2.52 3.784l-1.007-3.784h.596l2.114 3.784h-1.703zm-1.221 7.039h-3.03v-4.722h3.03v4.722z" fill="#43464E" stroke="#43464E" stroke-width=".2"/></svg>