<svg width="24" height="24" fill="none" xmlns="http://www.w3.org/2000/svg"><path d="M11.836 21h-.418l-.081-.034a1.335 1.335 0 01-.581-.518l-1.57-2.289c-.947-1.38-1.894-2.76-2.837-4.14a6.367 6.367 0 01-1.063-3.024c-.143-1.37.14-2.75.808-3.943a6.352 6.352 0 012.905-2.69c2.393-1.07 4.725-.732 6.743.978a6.305 6.305 0 012.21 4.222 6.62 6.62 0 01-1.17 4.635l-4.259 6.21a1.35 1.35 0 01-.615.56l-.072.033zm-.206-.939a1.17 1.17 0 00.152-.194l4.26-6.21a5.689 5.689 0 001.002-3.98 5.39 5.39 0 00-1.875-3.61c-1.765-1.495-3.719-1.778-5.807-.844a5.443 5.443 0 00-2.486 2.305 5.708 5.708 0 00-.686 3.378 5.41 5.41 0 00.896 2.566c.94 1.38 1.886 2.76 2.839 4.14.524.763 1.049 1.528 1.572 2.294.038.058.083.11.133.155zm-.017-7.208h-.022a2.412 2.412 0 01-1.689-.762 2.576 2.576 0 01-.698-1.762 2.56 2.56 0 01.732-1.766 2.395 2.395 0 011.725-.718 2.413 2.413 0 011.69.757c.445.47.697 1.1.7 1.758a2.556 2.556 0 01-.722 1.765 2.393 2.393 0 01-1.716.728zm.018-4.07c-.4-.001-.786.162-1.07.453a1.577 1.577 0 00-.455 1.099c.001.855.66 1.554 1.488 1.578.406.005.797-.156 1.087-.45.29-.293.455-.694.459-1.113-.004-.854-.666-1.55-1.493-1.57h-.017v.002z" fill="#43464E" stroke="#43464E" stroke-width=".6"/></svg>