<svg width="16" height="18" fill="none" xmlns="http://www.w3.org/2000/svg"><path fill-rule="evenodd" clip-rule="evenodd" d="M9.44 17.4h3.6c1.193 0 2.16-1.026 2.16-2.29V2.89c0-1.264-.967-2.29-2.16-2.29h-3.6c-.398 0-.72.342-.72.764 0 .421.322.763.72.763h3.6c.397 0 .72.342.72.764v12.218c0 .422-.323.764-.72.764h-3.6c-.398 0-.72.342-.72.763 0 .422.322.764.72.764zm-2.67-5.885a.797.797 0 000 1.08.691.691 0 001.019 0l2.876-3.05a.74.74 0 00.143-.212.8.8 0 00-.144-.878l-2.875-3.05a.691.691 0 00-1.018 0 .797.797 0 000 1.08l1.65 1.751H1.52c-.398 0-.72.342-.72.764s.322.764.72.764h6.902l-1.651 1.75z" fill="#43464E"/></svg>