<svg width="15" height="17" fill="none" xmlns="http://www.w3.org/2000/svg"><path d="M7.274 12.39a.245.245 0 00-.244-.244H1.496A4.587 4.587 0 016.07 7.809c.883 0 1.74.251 2.478.728a.245.245 0 00.266-.412A5.052 5.052 0 006.07 7.32 5.077 5.077 0 001 12.391c0 .135.11.245.245.245H7.03c.135 0 .245-.11.245-.245h0zM5.985 6.865a2.937 2.937 0 002.933-2.933A2.936 2.936 0 005.985 1a2.934 2.934 0 00-2.931 2.932 2.935 2.935 0 002.93 2.933zm0-5.376a2.446 2.446 0 012.443 2.443 2.447 2.447 0 01-2.443 2.444 2.446 2.446 0 01-2.442-2.444 2.445 2.445 0 012.442-2.443z" fill="#43464E" stroke="#43464E" stroke-width=".3"/><path d="M14.056 15.27l-1.696-2.468a2.47 2.47 0 00.507-1.484 2.497 2.497 0 00-2.475-2.512 2.503 2.503 0 00-2.512 2.477c-.003.558.18 1.072.487 1.49l-1.733 2.443a.245.245 0 00.251.382l1.37-.293.242 1.288a.245.245 0 00.456.072l1.401-2.594 1.365 2.613a.245.245 0 00.457-.065l.26-1.284 1.364.312a.245.245 0 00.256-.378h0zm-3.681-5.974h.013a2.007 2.007 0 011.989 2.019 1.986 1.986 0 01-.597 1.412 1.99 1.99 0 01-1.406.576h-.016a2.005 2.005 0 01-1.989-2.017c.008-1.1.907-1.99 2.006-1.99h0zM8.85 15.822l-.16-.855a.245.245 0 00-.292-.195l-1.002.215 1.306-1.842a2.48 2.48 0 001.264.61L8.85 15.823zm3.449-1.022a.246.246 0 00-.295.19l-.172.853-1.087-2.081a2.47 2.47 0 001.273-.593l1.279 1.859-.998-.228z" fill="#43464E" stroke="#43464E" stroke-width=".3"/></svg>