<svg width="24" height="24" fill="none" xmlns="http://www.w3.org/2000/svg"><path d="M23.05 16.865l-2.153-2.138a5.402 5.402 0 00-.428-7.15A5.369 5.369 0 0016.65 6c-1.446 0-2.803.56-3.82 1.577a5.362 5.362 0 00-1.579 3.818c0 1.445.56 2.801 1.578 3.818a5.369 5.369 0 003.82 1.578 5.336 5.336 0 003.32-1.15l2.139 2.167a.646.646 0 00.472.192.71.71 0 00.472-.192.658.658 0 000-.943zm-2.33-5.47a4.031 4.031 0 01-1.195 2.875 4.063 4.063 0 01-5.753 0 4.061 4.061 0 01-1.195-2.875c0-1.09.428-2.108 1.195-2.874a4.066 4.066 0 012.877-1.195c1.091 0 2.11.427 2.876 1.195a4.038 4.038 0 011.195 2.874z" fill="#43464E"/><rect x="1.35" y="5.85" width="8.058" height="1.281" rx=".64" fill="#43464E" stroke="#43464E" stroke-width=".3"/><rect x="1.35" y="11.735" width="7.088" height="1.281" rx=".64" fill="#43464E" stroke="#43464E" stroke-width=".3"/><rect x="1.35" y="17.619" width="10.967" height="1.281" rx=".64" fill="#43464E" stroke="#43464E" stroke-width=".3"/></svg>