<svg width="21" height="16" fill="none" xmlns="http://www.w3.org/2000/svg"><path d="M18.407 16h-16a2.182 2.182 0 01-2.182-2.182V2.182C.225.977 1.202 0 2.407 0h16c1.204 0 2.181.977 2.181 2.182v11.636A2.182 2.182 0 0118.407 16zm-16-14.545a.727.727 0 00-.728.727v11.636a.728.728 0 00.728.727h16a.728.728 0 00.727-.727V2.182a.728.728 0 00-.727-.727h-16z" fill="#1D1F22"/><path d="M10.406 8.35c-.48 0-.949-.159-1.33-.452L.996 1.68A.729.729 0 111.882.524l8.08 6.218c.262.2.625.2.887 0L18.93.524a.729.729 0 11.887 1.156l-8.08 6.218c-.381.293-.85.452-1.33.451z" fill="#1D1F22"/></svg>