<svg width="15" height="14" fill="none" xmlns="http://www.w3.org/2000/svg"><path d="M5 0C3.668 0 2.46.275 1.557.749S0 1.93 0 2.804v8.397c0 .866.646 1.57 1.552 2.045C2.458 13.72 3.667 14 5 14c1.12 0 2.152-.2 2.99-.547a4.617 4.617 0 002.177.547C12.832 14 15 11.725 15 8.927c0-2.797-2.168-5.073-4.833-5.073-.058 0-.115.003-.172.005V2.804c0-.874-.649-1.58-1.552-2.055C7.539.275 6.333 0 5 0zm0 .705c1.245 0 2.371.271 3.156.683.785.413 1.183.937 1.183 1.416-.155.743-.674 1.152-1.183 1.41-.785.413-1.91.684-3.156.684-1.246 0-2.371-.271-3.156-.683-.582-.317-1.112-.8-1.183-1.41 0-.48.397-1.004 1.183-1.417C2.629.976 3.754.705 5 .705zM.667 4.225c.246.24.552.452.89.63.904.474 2.11.748 3.443.748.577 0 1.13-.056 1.646-.153a5.129 5.129 0 00-.938 1.514c-.23.022-.467.039-.708.039-1.244 0-2.367-.272-3.151-.684C1.065 5.908.667 5.391.667 4.904v-.678zm9.5.329c2.305 0 4.166 1.953 4.166 4.373S12.472 13.3 10.167 13.3C7.86 13.3 6 11.347 6 8.927s1.861-4.373 4.167-4.373zm-9.5 1.77c.245.238.548.447.885.624.905.475 2.114.754 3.448.754.163 0 .321-.008.48-.016a5.328 5.328 0 00-.147 1.24c0 .058.004.114.006.17A7.926 7.926 0 015 9.102c-1.243 0-2.367-.272-3.151-.683-.784-.412-1.182-.93-1.182-1.416v-.678zm0 2.1c.245.237.548.446.885.623.905.475 2.114.755 3.448.755.137 0 .273-.005.406-.011.08.481.223.94.422 1.366a7.968 7.968 0 01-.828.044c-1.243 0-2.367-.272-3.151-.683-.784-.412-1.182-.929-1.182-1.416v-.678zm0 2.1c.245.236.548.445.885.622.905.475 2.114.755 3.448.755a9.01 9.01 0 001.203-.077c.293.44.65.825 1.057 1.148A7.741 7.741 0 015 13.3c-1.243 0-2.366-.272-3.15-.683-.785-.412-1.183-.929-1.183-1.416v-.678z" fill="#43464E"/></svg>