<svg width="24" height="24" fill="none" xmlns="http://www.w3.org/2000/svg"><path d="M18.914 8.385L15.762 4.5h-8.11L4.5 8.385v10.708h14.415l-.001-10.708zm-1.247-.261h-5.546V5.305h3.25l2.296 2.819zM8.042 5.305h3.25v2.819H5.744l2.297-2.819zM5.305 18.288V8.905h12.802v9.383H5.305z" fill="#72757E"/><path d="M12.438 13.526l.331-.326h-1.908c-.254 0-.482.025-.661.15-.356.251-.432.653-.331.928.076.3.305.627.763.652.382.026.763.026 1.17.026h.865c.255 0 .433.2.433.426-.001.225-.204.4-.433.4h-1.425c-.229 0-.432 0-.662-.025a1.669 1.669 0 01-1.526-1.28c-.203-.726.077-1.454.713-1.88.381-.25.789-.3 1.144-.3h1.908l-.408-.327a.46.46 0 01-.127-.3c0-.1.05-.225.127-.3.078-.075.205-.1.306-.1.102 0 .229.05.305.125l1.094 1.078c.077.075.127.2.101.3 0 .1-.05.226-.127.301l-1.043 1.078a.473.473 0 01-.305.126.423.423 0 01-.305-.126.459.459 0 01-.127-.3.325.325 0 01.128-.326z" fill="#72757E"/></svg>