<svg width="24" height="24" fill="none" xmlns="http://www.w3.org/2000/svg"><path fill-rule="evenodd" clip-rule="evenodd" d="M12.455 2.143l1.294 1.478 1.935-.822a.578.578 0 01.774.362l.59 1.904 2.1.038a.576.576 0 01.562.644l-.233 1.982 1.903.888a.576.576 0 01.277.765c-.26.538-.729 1.23-1.047 1.764l1.378 1.587a.58.58 0 01-.104.85l-1.628 1.15.613 2.009a.576.576 0 01-.44.732l-1.953.39-.256 2.083a.579.579 0 01-.743.483l-1.904-.432-1.082 1.799a.578.578 0 01-.84.166l-1.6-1.194-1.72 1.204a.576.576 0 01-.833-.192l-.973-1.738-2.065.401a.578.578 0 01-.685-.55l-.178-1.95-2.046-.472a.578.578 0 01-.418-.748l.641-1.888-1.677-1.265a.577.577 0 01-.043-.886l1.322-1.43-1.018-1.837a.577.577 0 01.278-.81l1.83-.786-.182-2.094a.581.581 0 01.633-.625l1.943.026.684-1.986a.58.58 0 01.818-.324l1.78.822 1.434-1.534a.578.578 0 01.876.036h.003zM7.27 12.22c-.766-.766.399-1.931 1.166-1.165l2.58 2.58 4.517-5.008c.723-.804 1.946.297 1.223 1.1l-5.072 5.622a.824.824 0 01-1.222.063L7.27 12.218l.001.001z" fill="#5ECE7B"/></svg>