<svg width="228" height="54" fill="none" xmlns="http://www.w3.org/2000/svg"><path opacity=".5" d="M.5 19.518V53.5H92a5 5 0 005-5v-6.687c0-.534-.132-1.059-.385-1.529l-.86-1.597c-.92-1.707-3.399-1.613-4.186.158-.046.103-.1.203-.16.298l-3.08 4.878c-1.392 2.204-4.533 2.396-6.183.38A3.818 3.818 0 0079.19 43h-.86a2.844 2.844 0 01-2.788-2.286l-1.494-7.47c-.316-1.577-2.583-1.54-2.847.046l-.065.388a.984.984 0 01-.97.822.984.984 0 00-.915.619l-.963 2.409a4.817 4.817 0 01-6.261 2.683l-2.294-.917a3.851 3.851 0 01-1.293-.853l-2.01-2.01a1.218 1.218 0 00-1.787.068c-.737.859-2.144.338-2.144-.793v-5.782c0-.89-.445-1.72-1.185-2.214l-1.135-.757a.996.996 0 00-1.258.125.996.996 0 01-1.57-.21l-1.29-2.26a1.454 1.454 0 01-.104-.225c-.516-1.418-2.584-1.21-2.808.282l-1.41 9.397c-.265 1.772-2.562 2.306-3.583.832a1.978 1.978 0 00-3.272.029l-1.177 1.765c-.848 1.272-2.803.933-3.173-.55a1.767 1.767 0 01-.047-.28L28.511 12.13a.996.996 0 00-.055-.253c-.39-1.094-2.018-.752-1.936.407l.24 3.35c.062.872-1.085 1.246-1.549.504a.839.839 0 00-1.422 0l-.075.12c-.494.79-1.714.44-1.714-.491V1.75a1.75 1.75 0 10-3.5 0v7.9c0 .776-1.029 1.05-1.414.376a.757.757 0 00-1.273-.065l-.147.206c-.52.727-1.666.36-1.666-.534V7.071c0-1.657-2.112-2.355-3.13-1.047-.238.307-.37.687-.37 1.076v23.653a3.01 3.01 0 01-.882 2.129c-1.499 1.498-4.036 1.02-4.886-.922l-1.364-3.12A4.384 4.384 0 013 27.083v-7.565c0-1.114-1.346-1.672-2.134-.884a1.25 1.25 0 00-.366.884z" fill="#43464E"/><path d="M98.943 38.802l-1.884-1.254a5 5 0 00-7.038 1.558l-4.29 7.028A5 5 0 0085 48.739V49a5 5 0 005 5h135.514c-.342 0-.683-.035-1.018-.105l-16.097-3.347a3.313 3.313 0 01-2.638-3.242V23.68c0-1.072-1.544-1.23-1.761-.181l-.755 10.438c-.035.487-.738.521-.82.04-.079-.462-.744-.458-.817.005l-.108.684-.618 10.623A5 5 0 01195.89 50h-11.906a5 5 0 01-4.943-4.246l-1.015-6.655a2.079 2.079 0 00-2.055-1.766h-.746c-.736 0-1.333.597-1.333 1.334 0 .736-.597 1.333-1.333 1.333h-.476c-.78 0-1.412-.632-1.412-1.412v-.844c0-1.038-1.3-1.506-1.961-.706a1.109 1.109 0 01-1.889-.31l-2.255-5.888a1.778 1.778 0 00-.167-.33c-.934-1.453-3.179-.886-3.313.836l-1.278 16.532c-.023.29-.419.356-.534.09a.278.278 0 00-.516.012l-.436 1.16c-.098.263-.477.242-.545-.03l-.034-.139c-.063-.252-.423-.252-.486 0-.064.257-.43.252-.487-.006l-.221-.997c-.118-.527-.876-.507-.965.026l-.443 2.658c-.081.49-.505.848-1.001.848h-13.754a.97.97 0 01-.966-.882l-.271-2.98c-.034-.37-.551-.43-.669-.077-.116.347-.623.297-.668-.066l-.202-1.613a.33.33 0 00-.603-.143.33.33 0 01-.604-.148l-.683-6.437c-.141-1.329-1.924-1.66-2.534-.47-.497.97-1.884.976-2.388.008l-.584-1.121a2.016 2.016 0 01-.181-.5l-.471-2.173c-.349-1.61-2.536-1.874-3.258-.393-.052.107-.094.22-.123.336L124.5 41.5a4.5 4.5 0 01-4.161 3.076l-.125.003a4.68 4.68 0 01-4.623-3.432l-2.838-10.283a2.474 2.474 0 00-.142-.383c-.853-1.81-3.421-1.836-4.309-.042l-.028.056a2.492 2.492 0 00-.142.354l-1.645 5.278c-.993 3.185-4.767 4.523-7.544 2.675z" fill="#F1F2F3"/></svg>