<svg width="75" height="30" viewBox="0 0 75 10" fill="none" xmlns="http://www.w3.org/2000/svg"><g clip-path="url(#clip0)" fill="#2B2A29"><path d="M0 10h9.32l.079-2.685H4.18V6.293h5.015v-2.7H4.18V2.7h5.267V0H0v10zm31.108-8.04V0h-8.714v1.945h5.61l-5.898 6.24V10h9.473V8.055h-6.254l5.783-6.095zM39.693 0c-.982 1.534-2.266 3.461-2.792 4.43-.526-.969-1.81-2.896-2.788-4.43H31.62l4.136 6.082c.02.028.035.054.045.079.01.018.02.036.025.053.01.028.014.06.02.093 0 .025.004.046.004.079V10h2.108V6.386c0-.034.005-.054.005-.079.005-.033.005-.065.015-.093a.266.266 0 01.025-.053l.045-.08L42.183 0h-2.49zm16.035 0h-.074c-.387 1.337-.977 3.325-1.468 5.084-.392 1.333-.724 2.536-.868 3.237-.332-1.62-1.721-5.978-2.46-8.321H49.23c-.74 2.343-2.133 6.7-2.46 8.321-.144-.7-.476-1.903-.868-3.234-.491-1.76-1.086-3.75-1.473-5.087h-1.736l3.03 10h2.004c.635-2.062 1.895-6.194 2.316-7.84.417 1.646 1.682 5.778 2.317 7.84h2.003L57.39 0h-1.662zM72.81 0h-.08c-1.18 1.69-2.96 4.127-3.49 5.017-.536-.89-2.317-3.327-3.497-5.017h-1.345l4.192 5.916a.368.368 0 01.069.232V10h1.16V6.148c0-.115.025-.16.065-.232L74.08 0h-1.27zM59.364 5.78c.07-.164.134-.316.199-.474l1.696-3.796 1.904 4.27h-3.799zM62.181.029l-.015-.03h-1.815l-4.464 10h1.582l1.335-2.985h4.915L64.75 9.33l.298.669h1.582L62.181.029zM14.473 5.828a64.43 64.43 0 001.041-3.319l.134-.428h.02l.134.428c.238.845.615 2.048 1.047 3.319h-2.376zM17.702 0H13.62v.009L9.895 10h3.259l.615-1.845h3.784l.61 1.845h3.264L17.702.009V0z"/></g><defs><clipPath id="clip0"><path fill="#fff" d="M0 0h74.08v10H0z"/></clipPath></defs></svg>