<svg width="40" height="39" fill="none" xmlns="http://www.w3.org/2000/svg"><path fill-rule="evenodd" clip-rule="evenodd" d="M23.662 15.218c-.466.34-.797.794-.983 1.297a2.802 2.802 0 00-4.15 1.165l-3.511-4.833a2.8 2.8 0 10-4.532 3.29l8.03 11.054-2.581-1.15a2.8 2.8 0 00-2.278 5.115c.325.146 1.577.702 1.838.819 1.996.894 4.192 3.273 6.193 4.167 2.794 1.247 6.916 2.567 7.149 2.645a.699.699 0 00.438-1.329c-.23-.076-4.714-1.559-7.02-2.598-1.57-.703-4.015-3.205-6.19-4.163-.262-.115-1.513-.675-1.838-.819a1.4 1.4 0 111.138-2.558l4.786 2.131c.5.271 1.424-.433.932-1.112L11.62 15.314a1.4 1.4 0 112.264-1.646l6.996 9.628a.7.7 0 101.132-.822l-2.058-2.832a1.4 1.4 0 012.266-1.645l2.058 2.831a.7.7 0 001.132-.824l-1.234-1.699a1.4 1.4 0 112.265-1.645l2.056 2.831a.7.7 0 001.134-.822l-1.236-1.7a1.4 1.4 0 012.266-1.645l2.881 3.964c2.694 3.71 2.997 8.889 5.14 11.84a.702.702 0 001.134-.824c-1.848-2.543-2.437-8.116-5.142-11.838l-2.88-3.966a2.801 2.801 0 00-4.893.68 2.802 2.802 0 00-3.239.037zM6.205 11.805a.698.698 0 01.99 0 .698.698 0 010 .99l-2.801 2.8a.698.698 0 01-.99 0l-2.8-2.8a.701.701 0 01.991-.99L3.2 13.41V1.1a.7.7 0 111.4 0v12.314l1.605-1.609z" fill="#E0E0E1"/></svg>