<svg width="16" height="16" fill="none" xmlns="http://www.w3.org/2000/svg"><path d="M12.278 9.993h-2.57v2.22c.044.427-.078.854-.338 1.187a1.545 1.545 0 01-1.374.59h-.673a.634.634 0 01-.391-.151.674.674 0 01-.221-.369v-.053l-.428-2.815-1.516-2.385H2V2h8.137c3.186 0 3.854 1.932 3.854 3.553v2.664c.044.426-.078.853-.338 1.186a1.545 1.545 0 01-1.375.59zM4.57 2.888H2.857v4.44H4.57v-4.44zm8.565 2.665c0-1.817-.95-2.665-2.998-2.665h-4.71V7.64l1.712 2.633.313 2.385.06.444h.484c.616 0 .856-.249.856-.888V9.105h3.426c.617 0 .857-.248.857-.888V5.553z" fill="#1D1F22"/></svg>