<svg width="16" height="16" fill="none" xmlns="http://www.w3.org/2000/svg"><path d="M12.278 6.007h-2.57v-2.22A1.658 1.658 0 009.37 2.6a1.544 1.544 0 00-1.374-.59h-.673a.633.633 0 00-.391.151.675.675 0 00-.221.369v.053l-.428 2.815-1.516 2.385H2V14h8.137c3.186 0 3.854-1.932 3.854-3.553V7.783a1.658 1.658 0 00-.338-1.186 1.545 1.545 0 00-1.375-.59zM4.57 13.112H2.857v-4.44H4.57v4.44zm8.565-2.665c0 1.817-.95 2.665-2.998 2.665h-4.71V8.36l1.712-2.633.313-2.385.06-.444h.484c.616 0 .856.249.856.888v3.109h3.426c.617 0 .857.248.857.888v2.664z" fill="#1D1F22"/></svg>