<svg width="22" height="18" fill="none" xmlns="http://www.w3.org/2000/svg"><path d="M11 18a.968.968 0 01-.572-.184l-.487-.356c-4.47-3.26-7.168-5.23-8.738-7.856-1.506-2.51-1.325-4.492-.91-5.713C.799 2.408 1.938 1.214 3.503.53A6.456 6.456 0 016.097 0C8.038 0 9.832.779 11 2.063 12.167.78 13.96 0 15.9 0c.918 0 1.792.178 2.596.529 1.564.684 2.704 1.877 3.21 3.361.417 1.22.597 3.202-.91 5.713-1.571 2.626-4.273 4.598-8.749 7.863l-.475.35A.976.976 0 0111 18zM6.097 1.762a4.5 4.5 0 00-1.811.365C3.2 2.602 2.414 3.42 2.07 4.43c-.433 1.27-.17 2.76.758 4.308 1.377 2.303 3.795 4.075 8.17 7.269 4.376-3.192 6.794-4.967 8.17-7.268.93-1.549 1.191-3.04.759-4.31-.345-1.009-1.132-1.827-2.218-2.302a4.49 4.49 0 00-1.81-.365c-1.753 0-3.382.917-4.054 2.283a.938.938 0 01-.847.51.938.938 0 01-.847-.51c-.67-1.366-2.3-2.283-4.053-2.283z" fill="#1D1F22"/></svg>