<svg width="21" height="20" viewBox="0 0 21 20" fill="none" xmlns="http://www.w3.org/2000/svg">
<path d="M17 9.97692C16.9874 6.12122 13.8571 3 10.0007 3C6.1429 3 3.01329 6.12122 3.0007 9.97692L3 9.95873V10.0371L3.0007 10.021C3.01259 13.8774 6.1422 17 10.0007 17C13.8578 17 16.9874 13.8788 17 10.0231L17.0007 10.0413V10.0035V10V9.95873L17 9.97692V9.97692ZM8.09313 13.1828C6.33806 13.1828 4.91176 11.7565 4.91176 10.0007C4.91176 8.24493 6.33806 6.81863 8.09313 6.81863C8.95353 6.81863 9.67263 7.13411 10.2238 7.64965L9.31798 8.52753C9.09064 8.31138 8.68912 8.05676 8.09313 8.05676C7.04037 8.05676 6.18137 8.93185 6.18137 10.0049C6.18137 11.0772 7.04107 11.9523 8.09313 11.9523C9.31168 11.9523 9.76077 11.1087 9.84331 10.6093H8.09174V9.42151H11.0682C11.1143 9.62157 11.1486 9.80903 11.1486 10.0734C11.1486 11.8901 9.93005 13.1828 8.09313 13.1828V13.1828ZM15.4086 10.3183H14.1362V11.5907H13.1821V10.3183H11.909V9.36414H13.1821V8.09104H14.1362V9.36414H15.4086V10.3183Z" fill="#898A8D"/>
</svg>
