<svg width="21" height="20" viewBox="0 0 21 20" fill="none" xmlns="http://www.w3.org/2000/svg">
<path d="M17 10C17 11.27 16.6871 12.4412 16.0612 13.5137C15.4353 14.5862 14.5862 15.4353 13.5137 16.0612C12.4412 16.6871 11.27 17 10 17C9.32552 17 8.66319 16.9028 8.01302 16.7083C8.37153 16.1432 8.60851 15.645 8.72396 15.2135C8.77865 15.0069 8.94271 14.3659 9.21615 13.2904C9.33767 13.5273 9.55946 13.7324 9.88151 13.9056C10.2036 14.0788 10.5499 14.1654 10.9206 14.1654C11.6558 14.1654 12.3121 13.9572 12.8893 13.541C13.4666 13.1248 13.9132 12.5521 14.2292 11.8229C14.5451 11.0937 14.7031 10.2734 14.7031 9.36198C14.7031 8.66927 14.5224 8.0191 14.1608 7.41146C13.7993 6.80382 13.2752 6.30859 12.5885 5.92578C11.9019 5.54297 11.1272 5.35156 10.2643 5.35156C9.6263 5.35156 9.03082 5.43967 8.47786 5.61589C7.92491 5.7921 7.45551 6.02604 7.06966 6.31771C6.68381 6.60937 6.35265 6.9451 6.07617 7.32487C5.7997 7.70464 5.59614 8.09809 5.46549 8.50521C5.33485 8.91233 5.26953 9.31944 5.26953 9.72656C5.26953 10.3585 5.39106 10.9145 5.63411 11.3945C5.87717 11.8746 6.23264 12.2118 6.70052 12.4062C6.88281 12.4792 6.99826 12.4184 7.04687 12.224C7.05903 12.1814 7.08333 12.0872 7.11979 11.9414C7.15625 11.7956 7.18056 11.7044 7.19271 11.668C7.22917 11.5282 7.19575 11.3976 7.09245 11.276C6.78255 10.9054 6.6276 10.4466 6.6276 9.89974C6.6276 8.9822 6.9451 8.19379 7.58008 7.53451C8.21506 6.87522 9.04601 6.54557 10.0729 6.54557C10.9905 6.54557 11.7059 6.7947 12.2194 7.29297C12.7329 7.79123 12.9896 8.43837 12.9896 9.23437C12.9896 10.2674 12.7815 11.1454 12.3652 11.8685C11.949 12.5916 11.4158 12.9531 10.7656 12.9531C10.395 12.9531 10.0972 12.821 9.8724 12.5566C9.64757 12.2923 9.57769 11.9748 9.66276 11.6042C9.71137 11.3915 9.79188 11.1074 9.9043 10.752C10.0167 10.3965 10.1079 10.0836 10.1777 9.81315C10.2476 9.54275 10.2826 9.31337 10.2826 9.125C10.2826 8.82118 10.2005 8.56901 10.0365 8.36849C9.8724 8.16797 9.63845 8.06771 9.33464 8.06771C8.9579 8.06771 8.63889 8.24089 8.3776 8.58724C8.11632 8.93359 7.98568 9.36502 7.98568 9.88151C7.98568 10.3251 8.06163 10.6957 8.21354 10.9935L7.3112 14.8034C7.2079 15.2287 7.1684 15.7665 7.19271 16.4167C5.94097 15.8637 4.92925 15.01 4.15755 13.8555C3.38585 12.701 3 11.4158 3 10C3 8.73003 3.31293 7.55881 3.9388 6.48633C4.56467 5.41385 5.41385 4.56467 6.48633 3.9388C7.55881 3.31293 8.73003 3 10 3C11.27 3 12.4412 3.31293 13.5137 3.9388C14.5862 4.56467 15.4353 5.41385 16.0612 6.48633C16.6871 7.55881 17 8.73003 17 10Z" fill="#898A8D"/>
</svg>
