<svg width="21" height="20" viewBox="0 0 21 20" fill="none" xmlns="http://www.w3.org/2000/svg">
<path d="M17.4003 5.40385C17.304 5.60721 17.1247 5.86407 16.8625 6.17443C16.6003 6.4848 16.2766 6.75772 15.8912 6.99318C15.902 7.07881 15.91 7.15907 15.9153 7.23398C15.9569 8.38745 15.6806 9.5842 15.2973 10.5812C14.5542 12.4349 13.4157 13.9268 11.7895 14.9398C10.0937 15.9126 8.1187 16.1194 6.29906 15.9432C5.09105 15.8045 3.90042 15.41 3 14.6669C4.64683 14.8638 6.18373 14.3036 7.39876 13.3987C6.04906 13.4328 5.06841 12.4565 4.60539 11.3277C4.81412 11.3824 5.03246 11.3758 5.2315 11.3598C5.47649 11.3368 5.70906 11.3138 5.93787 11.2635C5.07724 10.9858 4.3242 10.4754 3.93114 9.70628C3.70058 9.21895 3.59647 8.75487 3.59401 8.22932C3.99728 8.44164 4.48237 8.64858 4.92649 8.63066C4.25577 8.06248 3.71806 7.33635 3.6181 6.50352C3.55499 5.80911 3.72875 5.17523 3.97932 4.58508C4.98262 5.68773 6.10834 6.59515 7.40681 7.1537C8.2948 7.51734 9.18028 7.7118 10.0958 7.71558C9.99015 6.89782 10.0723 6.10694 10.4571 5.43593C10.9098 4.71449 11.5704 4.29593 12.3113 4.0874C13.3714 3.81557 14.4053 4.19954 15.0565 4.93825C15.7588 4.8624 16.4315 4.55085 16.9669 4.23188C16.7394 4.92081 16.2964 5.60581 15.6505 5.93359C16.2655 5.81973 16.8523 5.63767 17.4003 5.40385V5.40385Z" fill="#898A8D"/>
</svg>
