<svg xmlns="http://www.w3.org/2000/svg" width="64" height="64"><defs><clipPath id="a"><path fill="#fff" d="M64 32c0 17.673-14.327 32-32 32C14.327 64 0 49.673 0 32 0 14.327 14.327 0 32 0c17.673 0 32 14.327 32 32z"/></clipPath></defs><path fill="#fff" d="M64 32c0 17.673-14.327 32-32 32C14.327 64 0 49.673 0 32 0 14.327 14.327 0 32 0c17.673 0 32 14.327 32 32z"/><path fill="none" stroke="#000" stroke-miterlimit="20" stroke-width="8" d="M64 32c0 17.673-14.327 32-32 32C14.327 64 0 49.673 0 32 0 14.327 14.327 0 32 0c17.673 0 32 14.327 32 32z" clip-path="url(&quot;#a&quot;)"/><path d="M44.447 3.887l8.984 2.69 4.983 8.69 1.4 1.189-.993 1.52-3.531 5.681-2.127 6.999c.752 1.08 1.365 2.253 1.473 3.651l.006.195-.061.195s-.953 10.132-1.538 13.658c-.227 1.384-.706 3.075-1.614 4.648-.91 1.578-2.436 3.194-4.7 3.383l-33.708-.672-9.255-12.246-2.5-5.648 6.53-2.957c3.077-1.29 4.613-3.606 6.384-5.767.005-.016-.012-.046-.002-.064 1.234-1.511 2.232-2.895 3.573-4.126 1.359-1.246 3.1-2.224 5.499-2.821.982-4.858 3.576-7.64 5.374-9.105 1.687-1.37 3.436-1.716 5.498-2.756 2.062-1.043 4.53-2.616 7.478-6.059l1.316-1.53zm-1.23 4.446c-2.677 2.746-5.194 4.563-7.232 5.596-2.438 1.233-4.155 1.809-4.733 2.28-2.092 1.7-4.765 3.992-4.196 11.665l.36 12.042c.451-.111.52 0 1.031-.224 1.546-.67 2.777-1.583 3-3.85l-.239-8.03 2.075-.062 13.094-.455.13-.004c1.12-.076 2.139.178 3.132.553l1.714-5.624.057-.326.187-.202 2.728-4.293s.255-5.528-3.555-7.534C46.344 7.37 43.217 8.33 43.217 8.33zM20.571 28c-.918.837-1.845 2.08-3.2 3.726-1.307 1.586-12.105 9.647-12.105 9.647l5.936 11.926 35.144-1.05c.434-.037.912-.4 1.45-1.338.504-.902.868-1.875 1.084-2.885l-6.679.2-.124-4.145 7.327-.22c.182-1.543.353-2.555.525-4.163l-7.976.238-.124-4.145 8.495-.253c.02-.171.092-.943.1-.976a3.445 3.445 0 00-3.728-3.129l-.064.002-11.151.397.131 4.404c-.393 3.91-3.206 6.212-5.558 7.231-2.356 1.018-4.575 1.11-4.575 1.11l-2.075.061-.495-16.579c-.04-.493.097-.828.091-1.299-.873.366-1.829.695-2.429 1.24z"/></svg>