<svg width="61" height="31" viewBox="0 0 61 31" fill="none" xmlns="http://www.w3.org/2000/svg">
<g clip-path="url(#clip0)">
<path d="M44.1578 9.90063C43.055 12.8497 41.2196 15.5509 38.7316 17.8167C34.4636 21.7047 28.7896 23.8461 22.7572 23.8461C16.7249 23.8461 11.0519 21.7047 6.78283 17.8167C4.29486 15.5509 2.45948 12.8487 1.35667 9.90063H-0.000854492C3.65015 22.1055 14.9645 31.0001 28.3562 31.0001C41.7478 31.0001 53.0622 22.1046 56.7132 9.90063H44.1568H44.1578Z" fill="#2B2A29"/>
<path d="M17.1395 17.6202C11.3343 17.6202 6.25069 14.527 3.44678 9.89954H2.10999C3.18317 12.6491 4.92377 15.1707 7.25773 17.2963C11.3965 21.0668 16.9016 23.1431 22.7592 23.1431C28.6168 23.1431 34.122 21.0668 38.2607 17.2963C40.5946 15.1707 42.3352 12.6491 43.4084 9.89954H30.8333C28.0294 14.527 22.9458 17.6202 17.1405 17.6202H17.1395Z" fill="#2B2A29"/>
<path d="M0 8.11653H7.56859L7.62881 5.93659H3.39629V5.10628H7.46591V2.91547H3.39629V2.18883H7.67126V0H0V8.11653Z" fill="#2B2A29"/>
<path d="M25.2521 1.58855V0H18.1772V1.57671H22.7326L17.9452 6.64349V8.11653H25.6372V6.53686H20.5605L25.2521 1.58855Z" fill="#2B2A29"/>
<path d="M32.2224 0C31.4277 1.24498 30.3871 2.80885 29.9586 3.59374C29.5311 2.80885 28.4895 1.24399 27.6947 0H25.6718L29.0276 4.93548C29.0424 4.95818 29.0552 4.97892 29.0651 4.99965C29.073 5.01446 29.0799 5.02927 29.0838 5.04309C29.0917 5.06481 29.0947 5.09147 29.0977 5.11812C29.0996 5.13787 29.1026 5.15465 29.1026 5.1823V8.11554H30.8136V5.1823C30.8136 5.15465 30.8165 5.13886 30.8185 5.11812C30.8215 5.09245 30.8244 5.0658 30.8323 5.04309C30.8373 5.02828 30.8442 5.01347 30.8521 4.99965C30.8619 4.97892 30.8748 4.9572 30.8896 4.93548L34.2454 0H32.2224V0Z" fill="#2B2A29"/>
<path d="M45.1816 1.07299e-05C44.8686 1.08504 44.3878 2.69828 43.9889 4.12492C43.671 5.20699 43.4005 6.18441 43.283 6.7521C43.0155 5.43802 41.889 1.90154 41.2857 -0.000976562H39.9667C39.3635 1.90154 38.237 5.43703 37.9694 6.7521C37.8519 6.18441 37.5814 5.20798 37.2645 4.12689C36.8656 2.70026 36.3848 1.08505 36.0708 -0.000976562H34.663L37.1203 8.11555H38.7464C39.2618 6.44111 40.2876 3.08727 40.6272 1.75147C40.9668 3.08727 41.9926 6.44111 42.508 8.11555H44.1331L46.5904 -0.000976562H45.1816V1.07299e-05Z" fill="#2B2A29"/>
<path d="M59.0432 0C58.0865 1.37234 56.6401 3.3489 56.2087 4.07061C55.7773 3.3489 54.3309 1.37234 53.3742 0H52.2812L55.6825 4.80022C55.718 4.85945 55.7368 4.895 55.7368 4.9878V8.11554H56.6796V4.9878C56.6796 4.895 56.6994 4.85847 56.7349 4.80022L60.1361 0H59.0432V0Z" fill="#2B2A29"/>
<path d="M48.1949 4.68964C48.2502 4.55636 48.3025 4.43294 48.3558 4.30558L49.7311 1.22326L51.2792 4.68964H48.1949ZM50.4686 0H48.9946L45.3712 8.11653H46.6547L47.7368 5.69273H51.7254L52.5656 7.57451L52.8055 8.11752H54.091L50.4795 0.0227077H50.4775L50.4676 0.000987293L50.4686 0Z" fill="#2B2A29"/>
<path d="M11.7479 4.72913C12.1003 3.69741 12.4054 2.72098 12.596 2.03481L12.7056 1.68728H12.7214L12.8309 2.03481C13.0225 2.72098 13.3266 3.69741 13.679 4.72913H11.7479ZM14.3701 0H11.0568L11.0548 0.00493646L8.03369 8.11653H10.6796L11.1772 6.61881H14.2487L14.7463 8.11653H17.3922L14.3711 0.00493646L14.3691 0L14.3701 0Z" fill="#2B2A29"/>
</g>
<defs>
<clipPath id="clip0">
<rect width="60.1364" height="31" fill="white"/>
</clipPath>
</defs>
</svg>
